<?xml version="1.0" encoding="UTF-8"?>
<svg id="Layer_2" data-name="Layer 2" xmlns="http://www.w3.org/2000/svg" viewBox="0 0 841.33 316.38">
  <g id="Layer_1-2" data-name="Layer 1">
    <g>
      <g>
        <g>
          <g>
            <g>
              <rect x="124.71" y="150.5" width="27.58" height="4.2"/>
              <rect x="111.32" y="182.35" width="40.97" height="4.2"/>
              <rect x="111.32" y="198.26" width="40.97" height="4.2"/>
              <rect x="143.1" y="118.64" width="9.19" height="4.2"/>
              <rect x="133.91" y="134.57" width="18.38" height="4.2"/>
              <rect x="114.45" y="166.42" width="21.92" height="4.2"/>
              <path d="M152.29,214.2v4.2H29.51c-.06-.12-.12-.23-.18-.35l2.56-4.43h0s6.78-11.74,6.78-11.74l2.74-4.74,46.53-80.59,18.38,31.85,1.82,3.15-3.64,2.1-.61-1.05-15.95-27.65-44.62,77.28-2.64,4.57-4.27,7.4h115.88Z"/>
              <rect x="152.29" y="150.5" width="27.58" height="4.2"/>
              <rect x="152.29" y="182.35" width="40.97" height="4.2"/>
              <rect x="152.29" y="198.26" width="40.97" height="4.2"/>
              <rect x="152.29" y="118.64" width="9.19" height="4.2"/>
              <rect x="152.29" y="134.57" width="18.38" height="4.2"/>
              <rect x="168.22" y="166.42" width="21.91" height="4.2"/>
              <path d="M275.25,218.06c-.06,.11-.11,.23-.17,.34h-122.79v-4.2h115.89l-4.27-7.4-2.64-4.57-44.63-77.28-15.95,27.65-.61,1.05-3.64-2.1,1.82-3.15,18.38-31.85,46.54,80.6,2.74,4.74,6.77,11.73,2.56,4.44Z"/>
              <polygon points="195.36 216.3 191.16 216.3 191.16 174.51 152.29 107.18 113.42 174.51 113.42 216.3 109.22 216.3 109.22 173.38 152.29 98.77 195.36 173.38 195.36 216.3"/>
              <polygon points="210.36 216.3 206.16 216.3 206.16 170.48 152.29 77.17 98.42 170.48 98.42 216.3 94.22 216.3 94.22 169.35 152.29 68.78 210.36 169.35 210.36 216.3"/>
            </g>
            <path d="M134.27,150.49v36.06h36.05v-36.06h-36.05Zm31.85,31.86h-27.65v-27.66h27.65v27.66Z"/>
          </g>
          <path d="M152.29,21.89C76.96,21.89,15.67,83.18,15.67,158.51c0,21.33,4.91,41.53,13.66,59.54,.06,.12,.12,.23,.18,.35,22.23,45.39,68.92,76.73,122.78,76.73s100.56-31.34,122.79-76.73c.06-.11,.11-.23,.17-.34,8.76-18.01,13.67-38.21,13.67-59.55,0-75.33-61.29-136.62-136.63-136.62Zm120.4,191.73c-.73,1.61-1.5,3.21-2.31,4.78-21.9,43.01-66.61,72.53-118.09,72.53s-96.19-29.52-118.08-72.53c-.81-1.58-1.58-3.16-2.32-4.78h0c-7.72-16.79-12.02-35.46-12.02-55.11C19.87,85.49,79.27,26.09,152.29,26.09s132.43,59.4,132.43,132.42c0,19.66-4.3,38.32-12.03,55.11Z"/>
          <path d="M255.65,214.2c-.77,1.42-1.56,2.82-2.39,4.2-20.49,34.42-58.08,57.53-100.97,57.53s-80.48-23.11-100.96-57.53c-.83-1.38-1.62-2.78-2.39-4.2h-4.75c.73,1.42,1.49,2.82,2.28,4.2,20.92,36.83,60.52,61.73,105.82,61.73s84.91-24.9,105.83-61.73c.79-1.38,1.55-2.78,2.28-4.2h-4.75ZM152.29,36.89c-67.06,0-121.62,54.56-121.62,121.62,0,15.27,2.83,29.9,8,43.37,.63,1.66,1.3,3.3,2.01,4.92l2.64-4.57c-.68-1.67-1.32-3.37-1.91-5.09-4.24-12.1-6.54-25.1-6.54-38.63,0-64.75,52.67-117.42,117.42-117.42s117.43,52.67,117.43,117.42c0,13.53-2.3,26.54-6.54,38.64-.59,1.72-1.23,3.41-1.91,5.08l2.64,4.57c.71-1.62,1.38-3.25,2.01-4.91,5.17-13.48,8-28.1,8-43.38,0-67.06-54.56-121.62-121.63-121.62Z"/>
        </g>
        <g>
          <polygon points="5.65 97.81 6.44 96.12 11.43 98.44 14.38 92.09 9.39 89.77 10.18 88.07 21.94 93.53 21.15 95.23 15.99 92.83 13.04 99.18 18.2 101.58 17.41 103.28 5.65 97.81"/>
          <path d="M17.17,102.61l-10.85-5.04,.37-.79,10.85,5.04-.37,.79Zm3.74-8.05l-10.85-5.04,.37-.79,10.85,5.04-.37,.79Zm-8.58,4.95l-.7-.32,3.46-7.44,.7,.32-3.46,7.44Z"/>
          <path d="M24.78,82.35c-.39,0-.78-.04-1.17-.11-.85-.16-1.67-.49-2.45-1-.78-.51-1.42-1.13-1.9-1.84-.48-.71-.81-1.5-.98-2.33-.17-.84-.16-1.7,.01-2.56,.17-.86,.52-1.7,1.04-2.49,.52-.79,1.15-1.45,1.86-1.96,.72-.51,1.5-.85,2.33-1.04,.45-.1,.91-.15,1.37-.15,.38,0,.77,.03,1.15,.1,.85,.15,1.68,.49,2.47,1,.79,.51,1.43,1.14,1.91,1.86,.48,.72,.81,1.5,.97,2.33,.17,.83,.16,1.69-.01,2.55-.17,.86-.52,1.7-1.04,2.49-.52,.8-1.15,1.45-1.86,1.96-.72,.51-1.5,.85-2.34,1.04-.45,.1-.91,.15-1.36,.15Zm.06-11.6c-.32,0-.64,.03-.96,.1-.59,.12-1.16,.37-1.67,.73-.52,.36-.98,.84-1.36,1.42-.38,.58-.64,1.19-.76,1.81-.12,.62-.12,1.24,0,1.83,.12,.6,.36,1.17,.7,1.68,.34,.51,.81,.96,1.39,1.34,.57,.37,1.17,.62,1.78,.73,.29,.05,.57,.08,.86,.08,.32,0,.65-.03,.97-.1,.6-.13,1.16-.38,1.68-.74,.52-.36,.97-.84,1.36-1.42,.38-.58,.64-1.19,.76-1.81,.12-.62,.12-1.23,0-1.83-.12-.6-.37-1.16-.71-1.68-.35-.52-.82-.97-1.39-1.34-.58-.38-1.18-.63-1.79-.74-.29-.05-.57-.08-.85-.08Z"/>
          <path d="M29.93,78.94c-.49,.74-1.06,1.35-1.73,1.82-.67,.47-1.39,.79-2.16,.96-.77,.17-1.55,.18-2.33,.04s-1.54-.45-2.26-.93c-.73-.47-1.31-1.04-1.76-1.7-.45-.66-.75-1.38-.9-2.15-.15-.77-.15-1.56,.01-2.36,.16-.8,.49-1.57,.97-2.32,.49-.74,1.06-1.35,1.73-1.82,.67-.47,1.38-.79,2.15-.96,.76-.17,1.54-.18,2.32-.04s1.55,.45,2.28,.93c.73,.48,1.32,1.05,1.77,1.72,.44,.66,.74,1.38,.89,2.15,.15,.77,.15,1.55-.01,2.35s-.49,1.57-.97,2.32Zm-.67-.44c.42-.64,.69-1.3,.83-1.99,.14-.69,.13-1.36,0-2.02-.14-.66-.4-1.28-.79-1.85-.39-.57-.9-1.07-1.53-1.48-.64-.42-1.3-.69-1.97-.81-.68-.12-1.35-.11-2.01,.03s-1.28,.41-1.86,.81c-.57,.4-1.07,.92-1.49,1.56-.42,.64-.69,1.3-.83,1.99-.14,.69-.14,1.36,0,2.03,.14,.67,.39,1.29,.78,1.86s.89,1.06,1.53,1.48c.63,.41,1.28,.68,1.97,.81,.68,.13,1.35,.12,2.02-.03,.67-.14,1.29-.42,1.86-.82,.57-.4,1.07-.92,1.49-1.56Z"/>
          <polygon points="30.38 57.04 31.4 55.91 41.29 58.04 38.21 48.41 39.22 47.3 48.83 56 47.59 57.37 41 51.41 43.56 59.44 42.89 60.19 34.67 58.43 41.23 64.38 39.98 65.75 30.38 57.04"/>
          <path d="M39.95,65.05l-8.86-8.04,.49-.54,10.84,2.33-.26,.29-3.38-10.55,.48-.53,8.87,8.03-.57,.63-7.9-7.14,.16-.18,3.18,9.98-.29,.32-10.25-2.19,.17-.19,7.89,7.16-.57,.63Z"/>
          <polygon points="48.55 38.66 55.5 32.95 56.64 34.33 51.13 38.86 53.49 41.73 58.42 37.68 59.54 39.05 54.61 43.1 57.09 46.12 62.8 41.43 63.93 42.81 56.78 48.69 48.55 38.66"/>
          <path d="M56.84,47.98l-7.59-9.25,6.18-5.08,.5,.61-5.51,4.52,6.6,8.03,5.71-4.69,.5,.61-6.38,5.24Zm-3.02-4.89l-.49-.59,5.01-4.11,.49,.59-5.01,4.11Z"/>
          <polygon points="77.3 18.85 85.33 14.78 86.13 16.37 79.78 19.6 81.64 23.27 87.32 20.38 88.13 21.98 82.44 24.86 84.83 29.57 83.16 30.42 77.3 18.85"/>
          <path d="M83.38,29.75l-5.41-10.67,7.14-3.62,.36,.7-6.36,3.22,5.06,9.97-.78,.39Zm-1.7-5.06l-.36-.7,5.78-2.93,.36,.7-5.78,2.93Z"/>
          <path d="M102.66,21.27c-.88-.04-1.71-.25-2.48-.62-.77-.37-1.45-.88-2.02-1.53-.57-.64-1.01-1.41-1.31-2.29-.3-.88-.42-1.76-.36-2.62,.06-.86,.28-1.68,.67-2.44,.38-.76,.92-1.44,1.58-2.01,.67-.57,1.46-1.01,2.36-1.32,.78-.27,1.57-.4,2.34-.4,.11,0,.22,0,.33,0,.88,.04,1.71,.25,2.47,.62,.76,.37,1.44,.88,2.01,1.52,.58,.64,1.02,1.42,1.33,2.31,.3,.89,.42,1.78,.36,2.64-.06,.86-.29,1.68-.67,2.43-.38,.75-.91,1.43-1.58,2-.67,.57-1.46,1.01-2.35,1.32-.79,.27-1.57,.4-2.34,.4-.11,0-.22,0-.33,0Zm.7-11.42c-.55,0-1.12,.1-1.69,.29-.66,.22-1.23,.55-1.71,.96-.48,.41-.86,.9-1.13,1.45-.27,.55-.43,1.14-.48,1.75-.04,.62,.05,1.26,.27,1.91,.22,.65,.54,1.21,.95,1.67,.41,.47,.9,.84,1.45,1.1,.55,.27,1.15,.42,1.78,.45,.09,0,.17,0,.26,0,.55,0,1.12-.1,1.69-.29,.66-.22,1.24-.55,1.71-.96,.48-.41,.86-.9,1.12-1.44,.27-.55,.43-1.14,.47-1.76,.04-.62-.05-1.26-.27-1.91-.22-.66-.55-1.22-.96-1.68-.41-.46-.9-.83-1.45-1.1-.54-.27-1.14-.42-1.77-.46-.09,0-.17,0-.26,0Z"/>
          <path d="M105.17,20.4c-.84,.29-1.67,.41-2.48,.37s-1.58-.23-2.29-.57c-.71-.34-1.33-.81-1.86-1.41-.53-.6-.93-1.3-1.21-2.12-.28-.82-.39-1.63-.34-2.42,.05-.8,.26-1.54,.61-2.25s.84-1.32,1.46-1.85,1.35-.94,2.19-1.23c.84-.29,1.67-.41,2.48-.37,.81,.04,1.57,.23,2.28,.57,.7,.34,1.32,.8,1.86,1.4,.53,.59,.94,1.31,1.23,2.14,.28,.83,.39,1.64,.34,2.44-.06,.8-.27,1.54-.62,2.24-.35,.7-.84,1.31-1.46,1.84s-1.35,.94-2.19,1.23Zm-.26-.76c.72-.25,1.35-.6,1.88-1.06,.53-.46,.95-.99,1.24-1.6,.3-.61,.47-1.26,.52-1.95,.05-.69-.05-1.39-.29-2.1-.25-.72-.6-1.34-1.06-1.85s-.99-.92-1.6-1.22c-.61-.3-1.26-.47-1.96-.51-.7-.04-1.41,.07-2.13,.31-.72,.25-1.35,.6-1.88,1.06s-.95,.99-1.25,1.6c-.3,.61-.48,1.26-.53,1.94s.05,1.39,.3,2.11c.24,.71,.59,1.33,1.05,1.84,.46,.52,1,.93,1.61,1.22,.61,.3,1.27,.46,1.97,.5,.7,.04,1.41-.07,2.13-.31Z"/>
          <path d="M118.89,3.53l4.71-.87c.52-.1,1.03-.15,1.49-.15,.95,0,1.8,.2,2.51,.6,1.1,.61,1.79,1.64,2.05,3.04,.17,.91,.1,1.75-.21,2.5-.31,.74-.83,1.38-1.55,1.88l3.94,3.8-2.18,.4-3.51-3.38c-.28,.08-.58,.16-.9,.21l-2.87,.53,.71,3.85-1.84,.34-2.35-12.75Zm3.16,6.82l2.87-.53c1.14-.21,1.96-.61,2.43-1.19,.46-.57,.61-1.26,.45-2.13-.16-.88-.55-1.48-1.17-1.84-.41-.24-.94-.36-1.56-.36-.35,0-.73,.04-1.14,.11l-2.87,.53,1,5.41Z"/>
          <path d="M121.65,15.7l-2.17-11.77,4.22-.78c1.48-.27,2.7-.14,3.67,.4,.97,.54,1.57,1.44,1.8,2.69,.15,.82,.09,1.56-.18,2.22-.27,.66-.73,1.21-1.38,1.66-.65,.45-1.46,.76-2.45,.95l-3.75,.69,.31-.47,.78,4.25-.86,.16Zm.08-4.36l-.46-.33,3.75-.69c1.27-.23,2.18-.69,2.73-1.37,.55-.68,.74-1.53,.55-2.54-.19-1.02-.66-1.75-1.42-2.18-.76-.43-1.77-.53-3.04-.3l-3.75,.69,.31-.49,1.33,7.21Zm8.09,2.86l-3.85-3.71,.98-.18,3.85,3.71-.97,.18Z"/>
          <polygon points="156.32 13.11 156.71 1.93 152.41 1.79 152.47 0 162.95 .36 162.89 2.15 158.58 2 158.19 13.17 156.32 13.11"/>
          <path d="M156.84,12.63l.39-11.17-4.31-.15,.03-.79,9.48,.33-.03,.79-4.31-.15-.39,11.17-.87-.03Z"/>
          <polygon points="180.28 15.74 181.24 10.13 174.34 8.94 173.38 14.55 171.53 14.24 173.73 1.46 175.57 1.77 174.64 7.2 181.54 8.38 182.47 2.96 184.32 3.28 182.12 16.06 180.28 15.74"/>
          <path d="M172.11,13.83l2.02-11.79,.86,.15-2.02,11.79-.86-.15Zm1.72-5.48l.13-.76,8.09,1.39-.13,.76-8.09-1.39Zm7.02,6.98l2.02-11.79,.86,.15-2.02,11.79-.86-.15Z"/>
          <polygon points="192.61 18.71 196.57 6.37 205.14 9.12 204.59 10.82 197.81 8.64 196.67 12.18 202.74 14.13 202.2 15.82 196.13 13.87 194.93 17.58 201.97 19.84 201.42 21.54 192.61 18.71"/>
          <path d="M193.24,18.39l3.66-11.39,7.62,2.45-.24,.75-6.79-2.18-3.18,9.9,7.03,2.26-.24,.75-7.86-2.53Zm2.47-5.18l.24-.73,6.17,1.98-.24,.73-6.17-1.98Z"/>
          <polygon points="222.25 31.03 228.81 19.84 236.58 24.4 235.67 25.94 229.53 22.33 227.44 25.88 232.94 29.11 232.04 30.65 226.54 27.42 223.87 31.98 222.25 31.03"/>
          <path d="M222.94,30.85l6.06-10.32,6.9,4.05-.4,.68-6.15-3.61-5.66,9.64-.75-.44Zm3.34-4.17l.4-.68,5.59,3.28-.4,.68-5.59-3.28Z"/>
          <path d="M244.58,46.17l.84-3.6-4.98-3.85-3.27,1.73-1.62-1.25,12.64-6.62,1.2,.92-3.2,13.91-1.62-1.25Zm1.28-5.46l1.3-5.56-5.04,2.67,3.74,2.88Z"/>
          <path d="M236.48,39.29l11.67-6.11,.69,.53-2.95,12.84-.74-.57,2.86-12.22,.3,.23-11.08,5.88-.74-.57Zm3.65-1.43l.68-.4,5.67,4.38-.22,.76-6.13-4.73Z"/>
          <polygon points="260.53 61.47 266.94 55.32 258.75 57.31 258.06 56.58 260.39 48.51 253.99 54.63 252.71 53.29 262.08 44.33 263.13 45.43 260.31 55.14 270.13 52.75 271.17 53.83 261.81 62.81 260.53 61.47"/>
          <path d="M253.41,53.31l8.65-8.27,.51,.53-3.09,10.64-.27-.28,10.76-2.63,.5,.52-8.64,8.28-.59-.62,7.69-7.37,.16,.17-10.18,2.47-.3-.31,2.91-10.07,.18,.19-7.7,7.36-.59-.62Z"/>
          <rect x="267.83" y="67.31" width="12.97" height="1.87" transform="translate(13.28 176.72) rotate(-36.54)"/>
          <path d="M269.25,71.45l9.62-7.12,.52,.7-9.61,7.13-.52-.7Z"/>
          <polygon points="275.83 81.92 287 75.33 287.95 76.94 278.32 82.62 281.82 88.56 280.28 89.46 275.83 81.92"/>
          <path d="M276.51,82.09l10.31-6.08,.44,.75-9.63,5.68,3.5,5.93-.68,.4-3.94-6.69Z"/>
          <polygon points="284.89 98.98 288.98 97.17 294.64 88.97 295.5 90.92 291.11 97.28 298.78 98.31 299.62 100.22 289.74 98.89 285.65 100.7 284.89 98.98"/>
          <path d="M285.55,99.24l3.97-1.76-.43,.42,5.45-7.91,.39,.88-4.95,7.18-.19-.44,8.65,1.16,.37,.83-9.52-1.28,.6-.04-3.97,1.76-.35-.8Z"/>
        </g>
        <g>
          <path d="M4.39,213.08c-.25,0-.52-.03-.78-.09-.65-.15-1.26-.51-1.82-1.07-.54-.55-.99-1.33-1.35-2.33-.32-.89-.47-1.8-.45-2.71,.02-.92,.2-1.71,.54-2.35l.18-.33,1.74,.35-.28,.58c-.23,.46-.36,1.05-.39,1.75-.03,.7,.08,1.4,.33,2.09,.25,.69,.53,1.21,.86,1.57,.3,.33,.62,.54,.94,.63,.14,.04,.27,.06,.41,.06,.18,0,.35-.03,.53-.09,.37-.13,.61-.32,.75-.57,.16-.29,.25-.64,.27-1.05,.02-.45,0-.94-.05-1.45-.06-.54-.11-1.09-.16-1.65-.05-.59-.04-1.15,.03-1.68,.08-.58,.28-1.1,.61-1.55,.34-.47,.86-.83,1.54-1.07,.39-.14,.78-.21,1.18-.21,.24,0,.48,.03,.73,.08,.64,.14,1.25,.49,1.81,1.05,.54,.54,.99,1.31,1.35,2.3,.24,.67,.38,1.37,.42,2.08,.04,.72-.03,1.39-.2,1.98l-.11,.4-1.77-.16,.15-.57c.14-.53,.19-1.08,.16-1.62-.04-.55-.14-1.06-.3-1.52-.23-.65-.52-1.16-.84-1.51-.3-.32-.62-.53-.94-.61-.13-.03-.26-.05-.39-.05-.19,0-.38,.03-.57,.1-.37,.13-.62,.32-.76,.57-.16,.29-.25,.63-.27,1.03-.02,.45,0,.94,.06,1.46,.06,.55,.12,1.1,.16,1.65,.05,.57,.03,1.13-.04,1.66-.08,.57-.27,1.09-.59,1.55-.33,.47-.84,.83-1.52,1.08-.37,.13-.75,.2-1.13,.2Z"/>
          <path d="M.93,209.42c-.3-.84-.44-1.68-.42-2.53s.18-1.56,.48-2.12l.74,.15c-.26,.53-.4,1.18-.44,1.95s.09,1.53,.35,2.28,.59,1.33,.96,1.74c.37,.41,.76,.67,1.18,.78,.41,.11,.83,.09,1.23-.05,.48-.17,.82-.44,1.02-.8s.31-.78,.33-1.26,0-.99-.06-1.52c-.06-.54-.11-1.08-.16-1.63-.05-.55-.04-1.08,.03-1.57,.06-.5,.24-.94,.52-1.32,.28-.38,.71-.68,1.3-.89,.54-.19,1.08-.23,1.63-.11s1.07,.42,1.56,.91c.49,.49,.9,1.2,1.23,2.12,.22,.62,.35,1.27,.39,1.94,.04,.67-.03,1.28-.18,1.82l-.77-.07c.15-.59,.21-1.18,.17-1.78s-.15-1.15-.33-1.65c-.26-.72-.57-1.28-.95-1.68-.37-.4-.77-.65-1.19-.75-.42-.1-.84-.08-1.26,.07-.48,.17-.82,.44-1.02,.79-.2,.36-.31,.77-.33,1.25-.02,.48,0,.99,.06,1.54,.06,.55,.12,1.09,.16,1.63s.03,1.06-.03,1.56c-.06,.5-.23,.94-.51,1.33s-.7,.69-1.28,.89c-.53,.19-1.07,.22-1.63,.09-.56-.13-1.08-.44-1.57-.94-.49-.5-.9-1.21-1.23-2.15Z"/>
          <polygon points="10.88 232.6 15.93 229.97 12.69 223.77 7.64 226.4 6.78 224.74 18.28 218.75 19.14 220.4 14.26 222.95 17.5 229.16 22.38 226.61 23.24 228.27 11.74 234.27 10.88 232.6"/>
          <path d="M7.45,224.95l10.61-5.53,.4,.77-10.61,5.53-.4-.77Zm4.1,7.87l10.61-5.53,.4,.77-10.61,5.53-.4-.77Zm1.3-9.82l.68-.36,3.79,7.28-.68,.36-3.79-7.28Z"/>
          <polygon points="18.49 245.12 29.06 237.6 34.28 244.93 32.82 245.97 28.69 240.16 25.66 242.32 29.36 247.51 27.91 248.54 24.22 243.34 21.03 245.61 25.32 251.62 23.86 252.66 18.49 245.12"/>
          <path d="M19.19,245.24l9.75-6.94,4.64,6.52-.64,.46-4.13-5.81-8.47,6.03,4.28,6.02-.64,.46-4.79-6.73Zm5.08-2.67l.63-.45,3.76,5.28-.63,.45-3.76-5.28Z"/>
          <polygon points="31.07 261.42 40.64 252.66 41.9 254.04 33.66 261.59 38.31 266.67 36.99 267.88 31.07 261.42"/>
          <path d="M31.78,261.45l8.83-8.08,.59,.64-8.25,7.55,4.65,5.08-.58,.53-5.24-5.73Z"/>
          <polygon points="45.66 276.01 53.02 267.58 49.77 264.75 50.95 263.41 58.85 270.3 57.67 271.65 54.43 268.81 47.07 277.24 45.66 276.01"/>
          <path d="M46.37,275.96l7.35-8.42-3.25-2.83,.52-.59,7.15,6.24-.52,.59-3.25-2.83-7.35,8.42-.66-.57Z"/>
          <polygon points="58.97 286.63 66.21 275.88 73.68 280.9 72.68 282.39 66.77 278.4 64.69 281.49 69.98 285.05 68.99 286.52 63.7 282.95 61.52 286.19 67.64 290.32 66.64 291.8 58.97 286.63"/>
          <path d="M59.66,286.5l6.69-9.93,6.64,4.47-.44,.65-5.91-3.98-5.81,8.62,6.13,4.13-.44,.65-6.85-4.61Zm3.82-4.29l.43-.64,5.37,3.62-.43,.64-5.37-3.62Z"/>
          <path d="M84.2,301.33l-.78-4.81c-.28-.1-.56-.23-.85-.37l-2.61-1.3-1.74,3.5-1.68-.83,5.78-11.61,4.29,2.14c1.45,.72,2.43,1.65,2.93,2.77,.51,1.15,.45,2.38-.19,3.66-.41,.83-.98,1.46-1.67,1.87-.65,.38-1.38,.57-2.19,.57h-.18s.87,5.4,.87,5.4l-1.99-.99Zm-.83-6.76c.77,.38,1.46,.58,2.06,.58,.21,0,.41-.02,.6-.07,.71-.18,1.24-.65,1.64-1.43,.4-.8,.45-1.51,.16-2.18-.3-.69-.97-1.3-2.01-1.81l-2.61-1.3-2.45,4.92,2.61,1.3Z"/>
          <path d="M77.21,297.3l5.33-10.71,3.84,1.91c1.35,.67,2.25,1.51,2.7,2.53,.45,1.01,.39,2.09-.18,3.23-.37,.75-.86,1.3-1.48,1.66s-1.31,.53-2.1,.5c-.79-.03-1.63-.27-2.53-.71l-3.41-1.7,.53-.19-1.93,3.87-.78-.39Zm2.68-3.44l-.17-.54,3.41,1.7c1.15,.57,2.15,.75,3.01,.54,.85-.21,1.5-.78,1.96-1.7,.46-.93,.52-1.79,.17-2.6-.35-.8-1.09-1.49-2.25-2.06l-3.41-1.7,.54-.21-3.27,6.57Zm4.75,7.14l-.85-5.27,.89,.44,.85,5.27-.89-.44Z"/>
          <polygon points="110.07 310.8 113.16 298.21 121.91 300.35 121.48 302.09 114.56 300.39 113.58 304.38 119.77 305.9 119.34 307.63 113.15 306.12 111.89 311.25 110.07 310.8"/>
          <path d="M110.68,310.43l2.85-11.62,7.77,1.91-.19,.76-6.92-1.7-2.66,10.86-.85-.21Zm2.01-4.95l.19-.76,6.29,1.54-.19,.76-6.29-1.54Z"/>
          <path d="M136.49,315.62c-.26,0-.53-.01-.8-.04-.94-.1-1.82-.35-2.59-.76-.78-.41-1.45-.94-2-1.6-.55-.66-.95-1.41-1.2-2.23-.25-.82-.33-1.71-.23-2.63,.09-.92,.35-1.77,.76-2.53,.41-.76,.96-1.41,1.62-1.94,.67-.53,1.43-.92,2.28-1.16,.6-.17,1.24-.26,1.89-.26,.26,0,.53,.01,.8,.04,.94,.1,1.81,.35,2.59,.75,.78,.41,1.45,.94,1.99,1.59,.54,.65,.94,1.39,1.2,2.22,.26,.83,.34,1.72,.24,2.65-.1,.94-.36,1.79-.77,2.55-.42,.75-.96,1.4-1.62,1.93-.66,.53-1.43,.92-2.27,1.16-.6,.17-1.24,.26-1.89,.26Zm-.24-11.35c-.48,0-.94,.06-1.37,.19-.6,.18-1.15,.46-1.63,.84-.48,.38-.87,.85-1.17,1.39-.3,.54-.48,1.16-.55,1.85-.07,.68-.01,1.32,.17,1.92,.18,.6,.47,1.14,.86,1.61,.39,.47,.87,.86,1.43,1.15,.56,.29,1.19,.48,1.89,.55,.2,.02,.39,.03,.59,.03,.48,0,.94-.06,1.37-.19,.6-.17,1.15-.46,1.62-.84,.47-.38,.86-.86,1.16-1.4,.3-.55,.48-1.17,.55-1.85,.07-.69,.01-1.34-.17-1.93-.18-.59-.47-1.13-.85-1.6-.38-.47-.86-.86-1.42-1.15-.56-.29-1.19-.48-1.89-.55-.2-.02-.39-.03-.59-.03Z"/>
          <path d="M135.74,315.08c-.88-.09-1.69-.32-2.41-.7-.72-.38-1.34-.87-1.84-1.48s-.87-1.29-1.11-2.06c-.23-.76-.3-1.57-.21-2.44,.09-.86,.32-1.64,.7-2.34,.38-.7,.88-1.3,1.5-1.79,.62-.49,1.32-.85,2.1-1.07,.78-.22,1.62-.29,2.5-.2,.88,.09,1.69,.32,2.41,.7,.72,.38,1.34,.87,1.84,1.47,.5,.6,.87,1.28,1.11,2.05,.24,.76,.31,1.58,.22,2.45-.09,.87-.33,1.66-.71,2.36-.39,.7-.89,1.29-1.5,1.78-.61,.49-1.31,.84-2.09,1.07s-1.62,.29-2.5,.2Zm.08-.8c.76,.08,1.48,.02,2.15-.18,.67-.2,1.27-.51,1.8-.93,.52-.43,.95-.94,1.28-1.55,.33-.61,.54-1.29,.61-2.03,.08-.76,.01-1.47-.19-2.12-.2-.66-.52-1.25-.95-1.77-.43-.52-.95-.95-1.57-1.28-.62-.33-1.31-.53-2.07-.61s-1.48-.02-2.15,.18c-.67,.2-1.28,.51-1.81,.93-.53,.43-.96,.94-1.29,1.54s-.54,1.28-.61,2.04c-.08,.75-.01,1.45,.19,2.12,.2,.66,.52,1.26,.95,1.78,.43,.53,.96,.95,1.58,1.28,.62,.33,1.31,.53,2.07,.61Z"/>
          <path d="M153.72,303.43l4.79-.2c.13,0,.26,0,.39,0,1.43,0,2.62,.34,3.51,1.02,1,.76,1.54,1.87,1.6,3.3,.04,.93-.15,1.75-.56,2.44-.41,.69-1.02,1.25-1.8,1.64l3.37,4.32-2.22,.09-3-3.84c-.29,.04-.6,.07-.92,.08l-2.92,.12,.16,3.91-1.87,.08-.53-12.96Zm2.17,7.2l2.92-.12c1.16-.05,2.02-.33,2.58-.84,.53-.5,.78-1.17,.74-2.04-.04-.89-.33-1.54-.9-1.98-.54-.42-1.32-.63-2.32-.63-.1,0-.21,0-.32,0l-2.92,.12,.22,5.49Z"/>
          <path d="M154.73,315.86l-.49-11.96,4.29-.18c1.5-.06,2.7,.24,3.58,.91,.88,.67,1.35,1.64,1.4,2.92,.03,.83-.13,1.55-.49,2.17-.36,.61-.9,1.1-1.6,1.45-.7,.35-1.56,.55-2.56,.59l-3.81,.16,.38-.43,.18,4.32-.87,.04Zm.7-4.31l-.41-.39,3.81-.16c1.29-.05,2.25-.38,2.89-.97,.64-.6,.94-1.41,.9-2.43-.04-1.04-.41-1.82-1.1-2.36-.69-.54-1.68-.78-2.96-.73l-3.81,.16,.38-.44,.3,7.33Zm7.6,3.97l-3.29-4.21,.99-.04,3.29,4.21-.99,.04Z"/>
          <polygon points="189.38 300.47 185.21 301.57 184.76 299.84 194.9 297.17 195.35 298.9 191.19 300 194.03 310.81 192.22 311.29 189.38 300.47"/>
          <path d="M192.58,310.67l-2.85-10.81-4.17,1.1-.2-.76,9.18-2.42,.2,.76-4.17,1.1,2.85,10.81-.84,.22Z"/>
          <polygon points="203.62 294.24 205.35 293.53 207.45 298.61 213.92 295.94 211.82 290.85 213.55 290.13 218.5 302.12 216.77 302.83 214.6 297.57 208.13 300.25 210.31 305.51 208.58 306.22 203.62 294.24"/>
          <path d="M208.85,305.57l-4.58-11.06,.81-.33,4.58,11.06-.81,.33Zm-1.47-5.55l-.29-.71,7.58-3.14,.29,.71-7.58,3.14Zm9.66,2.16l-4.58-11.06,.81-.33,4.58,11.06-.81,.33Z"/>
          <polygon points="223.33 285.17 231.1 280.61 232 282.15 225.85 285.76 227.74 288.96 233.23 285.74 234.13 287.26 228.63 290.49 230.61 293.86 236.98 290.12 237.88 291.66 229.9 296.35 223.33 285.17"/>
          <path d="M230.08,295.66l-6.06-10.32,6.9-4.05,.4,.68-6.15,3.61,5.26,8.96,6.37-3.74,.4,.68-7.12,4.18Zm-2.22-5.3l-.39-.66,5.59-3.28,.39,.66-5.59,3.28Z"/>
          <path d="M256.99,275.59c-.12,0-.23,0-.35-.02l-.37-.03-.35-1.74,.65,.03h.16c.48,0,1.02-.11,1.6-.33,.66-.24,1.26-.62,1.8-1.11,.53-.49,.91-.97,1.11-1.4,.19-.41,.26-.78,.21-1.11s-.18-.6-.4-.85c-.26-.29-.53-.44-.82-.47-.06,0-.13,0-.19,0-.28,0-.57,.06-.88,.17-.43,.16-.87,.37-1.31,.61-.47,.26-.96,.53-1.45,.79-.52,.27-1.04,.48-1.56,.63-.31,.09-.62,.13-.93,.13-.25,0-.5-.03-.74-.08-.56-.13-1.09-.46-1.59-1-.45-.49-.74-1.06-.86-1.7-.12-.65-.04-1.34,.26-2.08,.29-.71,.83-1.43,1.6-2.14,.52-.48,1.11-.88,1.75-1.2,.65-.32,1.3-.52,1.91-.59l.41-.05,.54,1.69-.58,.09c-.55,.08-1.07,.25-1.55,.49-.49,.25-.92,.54-1.28,.87-.51,.47-.86,.93-1.06,1.36-.18,.41-.25,.78-.19,1.11,.05,.33,.19,.61,.43,.87,.27,.29,.53,.44,.82,.47,.07,0,.14,.01,.21,.01,.27,0,.55-.06,.85-.17,.42-.16,.87-.37,1.32-.62,.48-.27,.97-.54,1.46-.79,.51-.27,1.03-.47,1.54-.62,.32-.09,.64-.13,.96-.13,.24,0,.47,.03,.7,.07,.56,.12,1.1,.45,1.58,.98,.44,.48,.73,1.06,.84,1.71,.12,.66,.03,1.36-.28,2.09-.29,.71-.84,1.43-1.62,2.15-.69,.64-1.47,1.14-2.31,1.47-.72,.29-1.4,.44-2.03,.44Z"/>
          <path d="M260.99,273.32c-.65,.6-1.37,1.06-2.16,1.38-.79,.32-1.5,.44-2.15,.39l-.15-.74c.59,.03,1.24-.09,1.96-.36,.72-.27,1.37-.67,1.96-1.22s.99-1.06,1.22-1.56c.23-.5,.32-.96,.26-1.39-.06-.43-.24-.8-.53-1.12-.35-.38-.73-.59-1.14-.63-.41-.04-.84,.02-1.29,.19-.45,.17-.91,.38-1.38,.65-.47,.26-.95,.52-1.44,.78-.49,.26-.98,.45-1.46,.59s-.95,.15-1.42,.04c-.46-.11-.91-.39-1.33-.85-.39-.42-.63-.9-.74-1.46-.11-.55-.03-1.15,.23-1.79,.26-.64,.75-1.3,1.47-1.96,.49-.45,1.03-.82,1.64-1.11,.61-.29,1.19-.47,1.75-.54l.24,.74c-.6,.09-1.17,.27-1.7,.54-.54,.27-1,.58-1.39,.95-.56,.52-.95,1.03-1.17,1.53-.22,.5-.3,.96-.23,1.39,.07,.43,.25,.8,.55,1.13,.35,.38,.72,.59,1.13,.63,.41,.04,.83-.02,1.28-.18,.45-.17,.92-.39,1.39-.66,.48-.27,.96-.53,1.44-.78,.48-.25,.96-.44,1.44-.58,.48-.13,.95-.15,1.42-.05,.46,.1,.9,.37,1.32,.83,.38,.41,.62,.9,.72,1.46,.1,.56,.02,1.17-.25,1.81-.27,.64-.77,1.3-1.5,1.97Z"/>
          <polygon points="266 252.63 263.22 255.92 261.86 254.76 268.63 246.75 269.99 247.91 267.21 251.2 275.75 258.41 274.54 259.84 266 252.63"/>
          <path d="M274.48,259.14l-8.54-7.22-2.78,3.29-.6-.51,6.13-7.25,.6,.51-2.78,3.29,8.54,7.22-.56,.67Z"/>
          <path d="M282.17,245.4c-.37,0-.75-.03-1.12-.1-.85-.15-1.67-.48-2.45-.98-.78-.5-1.42-1.12-1.91-1.83-.49-.71-.82-1.49-.99-2.33-.17-.83-.18-1.69,0-2.56,.17-.86,.51-1.7,1.03-2.5,.51-.8,1.14-1.46,1.85-1.97,.71-.51,1.49-.87,2.32-1.05,.47-.11,.94-.16,1.42-.16,.36,0,.74,.03,1.1,.09,.85,.14,1.68,.48,2.48,.99,.79,.51,1.44,1.13,1.92,1.84,.48,.71,.82,1.49,.99,2.32,.17,.83,.17,1.68,0,2.55-.17,.86-.51,1.7-1.03,2.5-.51,.8-1.13,1.46-1.85,1.97-.72,.51-1.5,.87-2.33,1.05-.46,.11-.94,.16-1.41,.16Zm.06-11.6c-.33,0-.67,.04-.99,.11-.59,.13-1.15,.38-1.67,.74-.51,.37-.97,.85-1.35,1.43-.38,.58-.63,1.2-.74,1.82-.12,.62-.11,1.24,.01,1.84s.37,1.16,.72,1.67c.35,.51,.82,.96,1.4,1.33,.57,.37,1.17,.61,1.79,.72,.27,.05,.55,.07,.82,.07h0c.33,0,.67-.04,1-.11,.6-.13,1.16-.39,1.68-.75,.52-.37,.97-.85,1.34-1.43,.38-.58,.63-1.2,.75-1.82,.12-.62,.11-1.23-.02-1.83-.13-.59-.37-1.16-.73-1.67-.35-.51-.82-.96-1.4-1.33-.58-.38-1.19-.62-1.79-.72-.28-.05-.55-.07-.82-.07Z"/>
          <path d="M287.34,241.94c-.48,.75-1.05,1.36-1.72,1.83-.66,.47-1.38,.8-2.15,.97-.77,.18-1.55,.19-2.33,.06-.78-.14-1.54-.44-2.27-.91-.73-.47-1.32-1.03-1.77-1.69s-.76-1.37-.92-2.14c-.16-.77-.16-1.56,0-2.36,.16-.8,.47-1.58,.95-2.32,.48-.75,1.05-1.36,1.72-1.83s1.38-.8,2.14-.97c.76-.17,1.54-.19,2.32-.06,.79,.13,1.55,.44,2.29,.91,.74,.47,1.33,1.04,1.78,1.7,.45,.66,.75,1.37,.91,2.14s.16,1.55,0,2.35c-.16,.8-.47,1.58-.95,2.32Zm-.68-.43c.41-.64,.68-1.31,.82-2,.13-.69,.12-1.36-.02-2.02s-.41-1.28-.8-1.85c-.39-.57-.9-1.06-1.54-1.47-.64-.41-1.3-.68-1.98-.79-.68-.12-1.35-.1-2.01,.04s-1.28,.42-1.85,.82c-.57,.4-1.06,.93-1.48,1.57s-.68,1.31-.81,2c-.13,.69-.13,1.37,.01,2.03s.4,1.28,.79,1.85c.39,.57,.9,1.06,1.54,1.47,.63,.41,1.29,.67,1.97,.79s1.35,.11,2.02-.04,1.28-.43,1.86-.83,1.06-.93,1.48-1.57Z"/>
          <path d="M285.09,220.61l1.98-4.36c.67-1.47,1.57-2.49,2.67-3.02,.54-.26,1.12-.4,1.71-.4,.63,0,1.29,.15,1.96,.46,.84,.38,1.49,.92,1.92,1.6,.43,.68,.65,1.47,.65,2.35l5.37-1.06-.92,2.02-4.78,.94c-.09,.28-.21,.57-.34,.86l-1.21,2.66,3.56,1.62-.78,1.7-11.8-5.37Zm7.4,1.31l1.21-2.66c.48-1.06,.62-1.96,.41-2.68-.2-.7-.69-1.22-1.49-1.59-.44-.2-.86-.3-1.24-.3-.33,0-.64,.07-.94,.21-.67,.32-1.26,1.02-1.74,2.07l-1.21,2.66,5,2.28Z"/>
          <path d="M296.64,225.32l-10.89-4.96,1.78-3.91c.62-1.37,1.43-2.3,2.43-2.78,1-.49,2.08-.46,3.24,.07,.76,.34,1.33,.82,1.71,1.42,.38,.6,.58,1.29,.57,2.08,0,.79-.21,1.64-.63,2.55l-1.58,3.47-.21-.53,3.94,1.79-.36,.79Zm-3.53-2.56l-.54,.19,1.58-3.47c.53-1.17,.68-2.18,.44-3.02-.24-.84-.83-1.48-1.76-1.9-.94-.43-1.81-.46-2.6-.08-.79,.37-1.45,1.15-1.98,2.32l-1.58,3.47-.23-.53,6.67,3.04Zm6.97-5l-5.24,1.03,.41-.9,5.24-1.03-.41,.9Z"/>
          <polygon points="292.84 201.92 293.25 200.46 303.05 197.96 296.01 190.71 296.42 189.26 308.9 192.78 308.4 194.56 299.84 192.16 305.71 198.21 305.44 199.17 297.3 201.26 305.82 203.67 305.31 205.45 292.84 201.92"/>
          <path d="M304.97,204.84l-11.51-3.26,.2-.71,10.74-2.73-.11,.38-7.72-7.94,.2-.69,11.52,3.24-.23,.82-10.25-2.88,.06-.23,7.29,7.52-.12,.41-10.15,2.6,.07-.25,10.25,2.9-.23,.82Z"/>
        </g>
      </g>
      <g>
        <path d="M390.59,190.22c-4.53,0-8.79-.81-12.67-2.4-3.88-1.59-7.26-3.83-10.06-6.66-2.8-2.82-5.01-6.22-6.57-10.1-1.56-3.88-2.36-8.14-2.36-12.68s.79-8.85,2.35-12.67c1.56-3.81,3.8-7.16,6.65-9.96,2.86-2.8,6.26-5.02,10.11-6.58,3.85-1.56,8.07-2.36,12.54-2.36s8.85,.79,12.67,2.35c3.82,1.56,7.2,3.78,10.07,6.58,2.86,2.8,5.09,6.15,6.65,9.96,1.56,3.82,2.35,8.08,2.35,12.67s-.79,8.8-2.36,12.68c-1.56,3.87-3.78,7.27-6.61,10.1-2.83,2.83-6.22,5.07-10.06,6.66s-8.12,2.4-12.71,2.4Zm0-55.73c-4.39,0-8.37,1.04-11.83,3.09-3.46,2.05-6.2,4.92-8.15,8.53-1.94,3.59-2.92,7.72-2.92,12.28s.98,8.69,2.92,12.28c1.95,3.61,4.69,6.48,8.15,8.53,3.46,2.05,7.43,3.09,11.83,3.09s8.45-1.04,11.88-3.09c3.42-2.05,6.15-4.92,8.1-8.53,1.94-3.6,2.92-7.73,2.92-12.28s-.97-8.68-2.88-12.27c-1.92-3.61-4.63-6.48-8.06-8.54-3.43-2.05-7.46-3.09-11.97-3.09Z"/>
        <polygon points="432.27 188.86 464.13 135.21 434.1 135.21 434.1 127.91 477.09 127.91 445.05 181.83 475.71 181.83 475.71 188.86 432.27 188.86"/>
        <path d="M536.67,188.86l-7.29-16.34h-25.1l-7.24,16.34h-9.2l29.02-62.7,29.01,62.7h-9.2Zm-30.4-22.82h21.16l-10.57-24.75-10.59,24.75Z"/>
        <path d="M593.8,188.86l-16.06-24.05h-8.53v24.05h-8.12v-60.95h18.31c4.38,0,8.24,.78,11.47,2.32,3.18,1.52,5.67,3.67,7.41,6.38,1.73,2.71,2.61,5.97,2.61,9.69s-.88,7-2.61,9.75c-1.73,2.74-4.23,4.9-7.41,6.42-.99,.47-2.05,.88-3.14,1.21l-1.73,.52,17.49,24.66h-9.69Zm-24.59-30.27h9.74c2.6,0,4.93-.47,6.94-1.39,2.06-.95,3.7-2.34,4.86-4.15,1.16-1.81,1.75-3.98,1.75-6.47s-.59-4.74-1.75-6.52c-1.16-1.77-2.8-3.15-4.86-4.1-2.01-.92-4.34-1.39-6.94-1.39h-9.74v24.02Z"/>
        <polygon points="654.62 188.86 628.02 157 628.02 188.86 619.63 188.86 619.63 127.91 628.02 127.91 628.02 156.4 653.5 127.91 662.9 127.91 637.32 156.36 664.4 188.86 654.62 188.86"/>
        <rect x="712.13" y="127.91" width="8.21" height="60.95"/>
        <path d="M769.65,189.95c-4.48,0-8.7-.76-12.55-2.27-3.84-1.5-7.22-3.69-10.04-6.52-2.83-2.83-5.07-6.22-6.66-10.06-1.59-3.85-2.4-8.12-2.4-12.71s.81-8.87,2.4-12.71c1.59-3.85,3.83-7.23,6.66-10.06,2.82-2.82,6.2-5.02,10.04-6.52,3.85-1.51,8.08-2.27,12.55-2.27s8.24,.55,11.17,1.64c2.75,1.03,5.37,2.5,7.78,4.4v8.89c-.96-.87-1.99-1.7-3.09-2.46-2.06-1.43-4.39-2.57-6.92-3.39-2.54-.83-5.43-1.24-8.57-1.24-4.08,0-7.91,.99-11.39,2.93-3.48,1.95-6.33,4.73-8.47,8.27-2.14,3.55-3.23,7.76-3.23,12.52s1.09,8.89,3.23,12.47c2.14,3.57,4.98,6.37,8.47,8.32,3.48,1.95,7.31,2.93,11.39,2.93,3.15,0,6.03-.42,8.57-1.24,2.52-.82,4.85-1.96,6.92-3.39,1.1-.76,2.14-1.59,3.09-2.46v8.89c-2.41,1.9-5.03,3.38-7.78,4.4-2.93,1.09-6.68,1.64-11.17,1.64Z"/>
        <polygon points="808.89 188.86 808.89 127.91 841.33 127.91 841.33 134.94 816.83 134.94 816.83 153.42 840.43 153.42 840.43 160.18 816.83 160.18 816.83 188.86 808.89 188.86"/>
      </g>
    </g>
  </g>
</svg>