<?xml version="1.0" encoding="UTF-8"?>
<svg id="Layer_2" data-name="Layer 2" xmlns="http://www.w3.org/2000/svg" viewBox="0 0 709.48 159.77">
  <g id="Layer_1-2" data-name="Layer 1">
    <g>
      <polygon points="107.85 92.21 154.71 13.31 110.54 13.31 110.54 2.57 173.77 2.57 126.64 81.87 171.74 81.87 171.74 92.21 107.85 92.21"/>
      <path d="M261.4,92.21l-10.72-24.03h-36.92l-10.64,24.03h-13.53L232.26,0l42.67,92.21h-13.53Zm-44.72-33.57h31.12l-15.54-36.4-15.58,36.4Z"/>
      <path d="M345.42,92.21l-23.62-35.38h-12.55v35.38h-11.94V2.57h26.93c6.44,0,12.12,1.15,16.87,3.42,4.68,2.24,8.34,5.39,10.9,9.39,2.55,3.99,3.84,8.79,3.84,14.26s-1.29,10.3-3.84,14.33c-2.55,4.03-6.22,7.21-10.89,9.44-1.45,.69-3.01,1.29-4.62,1.77l-2.55,.76,25.73,36.26h-14.24Zm-36.17-44.51h14.32c3.82,0,7.25-.69,10.2-2.04,3.04-1.39,5.44-3.45,7.15-6.11,1.71-2.66,2.57-5.86,2.57-9.51s-.87-6.97-2.58-9.59c-1.71-2.61-4.11-4.64-7.14-6.03-2.95-1.36-6.39-2.04-10.2-2.04h-14.32V47.7Z"/>
      <polygon points="434.87 92.21 395.75 45.35 395.75 92.21 383.42 92.21 383.42 2.57 395.75 2.57 395.75 44.47 433.23 2.57 447.05 2.57 409.42 44.41 449.26 92.21 434.87 92.21"/>
      <rect x="519.45" y="2.57" width="12.07" height="89.64"/>
      <path d="M604.05,93.81c-6.58,0-12.8-1.12-18.46-3.34-5.65-2.21-10.62-5.43-14.77-9.59-4.16-4.16-7.46-9.14-9.8-14.8-2.34-5.66-3.52-11.95-3.52-18.7s1.19-13.04,3.52-18.7c2.34-5.66,5.64-10.64,9.8-14.8,4.15-4.15,9.12-7.38,14.77-9.59,5.67-2.22,11.88-3.34,18.46-3.34s12.12,.81,16.42,2.42c4.05,1.51,7.89,3.68,11.44,6.47v13.08c-1.41-1.28-2.93-2.49-4.55-3.62-3.03-2.1-6.46-3.77-10.17-4.98-3.74-1.21-7.98-1.83-12.61-1.83-6,0-11.63,1.45-16.75,4.32-5.12,2.87-9.31,6.96-12.45,12.16-3.15,5.21-4.75,11.41-4.75,18.41s1.6,13.08,4.74,18.33c3.14,5.25,7.33,9.37,12.45,12.23,5.11,2.86,10.75,4.31,16.75,4.31,4.63,0,8.87-.62,12.61-1.83,3.71-1.21,7.14-2.88,10.17-4.98,1.62-1.12,3.14-2.33,4.55-3.62v13.08c-3.55,2.79-7.4,4.97-11.44,6.47-4.31,1.6-9.83,2.42-16.42,2.42Z"/>
      <polygon points="661.76 92.21 661.76 2.57 709.48 2.57 709.48 12.91 673.43 12.91 673.43 40.09 708.14 40.09 708.14 50.02 673.43 50.02 673.43 92.21 661.76 92.21"/>
      <path d="M72.58,70.53c-2.39,3-5.26,5.5-8.55,7.47-5.04,3.01-10.91,4.54-17.46,4.54s-12.32-1.53-17.4-4.54c-3.35-1.97-6.23-4.47-8.62-7.47H5.58c2.03,3.86,4.57,7.33,7.56,10.37,4.11,4.15,9.09,7.45,14.79,9.79,5.7,2.34,11.96,3.52,18.64,3.52s13.02-1.18,18.68-3.52c5.67-2.34,10.64-5.64,14.8-9.8,3.03-3.03,5.59-6.5,7.63-10.36h-15.1Zm17.2-41.77c-2.29-5.61-5.58-10.53-9.78-14.64-4.21-4.13-9.18-7.38-14.81-9.68-5.61-2.3-11.87-3.46-18.62-3.46s-12.79,1.16-18.45,3.46c-5.65,2.3-10.65,5.55-14.87,9.68-4.2,4.11-7.48,9.03-9.78,14.64-2.3,5.62-3.47,11.88-3.47,18.63s1.1,12.49,3.22,18.02l9.68-16.76c-.01-.42-.02-.84-.02-1.26,0-6.7,1.45-12.78,4.3-18.05,2.86-5.31,6.9-9.54,11.99-12.55,5.05-2.99,10.87-4.52,17.3-4.54h.32c6.53,.03,12.39,1.56,17.38,4.54,5.03,3.03,9.02,7.25,11.85,12.55,2.8,5.29,4.22,11.36,4.22,18.05,0,.35,0,.71,0,1.06l9.79,16.96c2.14-5.53,3.22-11.59,3.22-18.02,0-6.75-1.16-13.01-3.46-18.63Z"/>
      <g>
        <g>
          <rect x="37.22" y="44.85" width="9.41" height="1.43"/>
          <rect x="32.65" y="55.72" width="13.98" height="1.43"/>
          <rect x="32.65" y="61.15" width="13.98" height="1.43"/>
          <rect x="43.49" y="33.99" width="3.14" height="1.43"/>
          <rect x="40.35" y="39.42" width="6.27" height="1.43"/>
          <rect x="33.71" y="50.29" width="7.48" height="1.43"/>
          <path d="M46.63,66.59v1.43H4.73s-.04-.08-.06-.12l.87-1.51h0s2.31-4.01,2.31-4.01l.93-1.62,15.88-27.5,6.27,10.87,.62,1.07-1.24,.72-.21-.36-5.44-9.43-15.23,26.37-.9,1.56-1.46,2.53H46.63Z"/>
          <rect x="46.63" y="44.85" width="9.41" height="1.43"/>
          <rect x="46.63" y="55.72" width="13.98" height="1.43"/>
          <rect x="46.63" y="61.15" width="13.98" height="1.43"/>
          <rect x="46.63" y="33.99" width="3.14" height="1.43"/>
          <rect x="46.63" y="39.42" width="6.27" height="1.43"/>
          <rect x="52.06" y="50.29" width="7.48" height="1.43"/>
          <path d="M88.58,67.91s-.04,.08-.06,.12H46.63v-1.43h39.54l-1.46-2.53-.9-1.56-15.23-26.37-5.44,9.43-.21,.36-1.24-.72,.62-1.07,6.27-10.87,15.88,27.5,.94,1.62,2.31,4,.87,1.52Z"/>
          <polygon points="61.32 67.31 59.89 67.31 59.89 53.05 46.63 30.07 33.36 53.05 33.36 67.31 31.93 67.31 31.93 52.66 46.63 27.21 61.32 52.66 61.32 67.31"/>
          <polygon points="66.44 67.31 65.01 67.31 65.01 51.67 46.63 19.84 28.24 51.67 28.24 67.31 26.81 67.31 26.81 51.29 46.63 16.97 66.44 51.29 66.44 67.31"/>
        </g>
        <path d="M46.63,11.97l-.16,.28h.32l-.16-.28Z"/>
        <path d="M40.48,44.85v12.3h12.3v-12.3h-12.3Zm10.87,10.87h-9.43v-9.44h9.43v9.44Z"/>
      </g>
      <g>
        <g>
          <polygon points="299.55 159.01 299.55 116.28 305.24 116.28 305.24 154.08 322.93 154.08 322.93 159.01 299.55 159.01"/>
          <polygon points="337.82 159.01 337.82 116.28 343.51 116.28 343.51 154.08 361.2 154.08 361.2 159.01 337.82 159.01"/>
          <path d="M393.84,159.77c-3.14,0-6.1-.54-8.8-1.59-2.69-1.05-5.06-2.59-7.04-4.57-1.98-1.98-3.56-4.36-4.67-7.05-1.12-2.69-1.68-5.69-1.68-8.91s.57-6.22,1.68-8.91c1.12-2.7,2.69-5.07,4.67-7.05,1.98-1.98,4.35-3.52,7.04-4.57,2.7-1.06,5.66-1.59,8.8-1.59s5.78,.39,7.83,1.15c1.93,.72,3.76,1.76,5.45,3.08v6.23c-.67-.61-1.4-1.19-2.17-1.72-1.44-1-3.07-1.8-4.85-2.38-1.78-.58-3.8-.87-6.01-.87-2.86,0-5.55,.69-7.98,2.06-2.44,1.37-4.44,3.32-5.93,5.8-1.5,2.49-2.26,5.44-2.26,8.77s.76,6.23,2.26,8.74c1.5,2.5,3.5,4.47,5.94,5.83,2.44,1.36,5.12,2.06,7.98,2.06,2.21,0,4.23-.29,6.01-.87,1.77-.58,3.4-1.38,4.85-2.38,.77-.54,1.5-1.11,2.17-1.72v6.23c-1.69,1.33-3.52,2.37-5.45,3.08-2.05,.76-4.69,1.15-7.83,1.15Z"/>
        </g>
        <rect x="47.58" y="135.62" width="223.73" height="4.05"/>
        <rect x="435.35" y="135.62" width="226.55" height="4.05"/>
      </g>
    </g>
  </g>
</svg>