<?xml version="1.0" encoding="UTF-8"?>
<svg id="Layer_2" data-name="Layer 2" xmlns="http://www.w3.org/2000/svg" xmlns:xlink="http://www.w3.org/1999/xlink" viewBox="0 0 709.47 159.77">
  <defs>
    <style>
      .cls-1 {
        fill: url(#linear-gradient-2);
      }

      .cls-2 {
        fill: url(#linear-gradient-17);
      }

      .cls-3 {
        fill: url(#linear-gradient-15);
      }

      .cls-4 {
        fill: url(#linear-gradient-18);
      }

      .cls-5 {
        fill: url(#linear-gradient-28);
      }

      .cls-6 {
        fill: url(#linear-gradient-14);
      }

      .cls-7 {
        fill: url(#linear-gradient-20);
      }

      .cls-8 {
        fill: url(#linear-gradient-6);
      }

      .cls-9 {
        fill: url(#linear-gradient-11);
      }

      .cls-10 {
        fill: url(#linear-gradient-10);
      }

      .cls-11 {
        fill: url(#linear-gradient-16);
      }

      .cls-12 {
        fill: url(#linear-gradient-31);
      }

      .cls-13 {
        fill: url(#linear-gradient-21);
      }

      .cls-14 {
        fill: url(#linear-gradient-25);
      }

      .cls-15 {
        fill: url(#linear-gradient-5);
      }

      .cls-16 {
        fill: url(#linear-gradient-7);
      }

      .cls-17 {
        fill: url(#linear-gradient-24);
      }

      .cls-18 {
        fill: url(#linear-gradient-9);
      }

      .cls-19 {
        fill: url(#linear-gradient-22);
      }

      .cls-20 {
        fill: url(#linear-gradient-3);
      }

      .cls-21 {
        fill: url(#linear-gradient);
      }

      .cls-22 {
        fill: url(#linear-gradient-27);
      }

      .cls-23 {
        fill: url(#linear-gradient-29);
      }

      .cls-24 {
        fill: url(#linear-gradient-30);
      }

      .cls-25 {
        fill: url(#linear-gradient-23);
      }

      .cls-26 {
        fill: url(#linear-gradient-19);
      }

      .cls-27 {
        fill: url(#linear-gradient-4);
      }

      .cls-28 {
        fill: url(#linear-gradient-8);
      }

      .cls-29 {
        fill: url(#linear-gradient-12);
      }

      .cls-30 {
        fill: url(#linear-gradient-13);
      }

      .cls-31 {
        fill: url(#linear-gradient-26);
      }
    </style>
    <linearGradient id="linear-gradient" x1="41.91" y1="-1.54" x2="41.91" y2="97.19" gradientUnits="userSpaceOnUse">
      <stop offset="0" stop-color="#f7e47d"/>
      <stop offset=".03" stop-color="#ecd36a"/>
      <stop offset=".1" stop-color="#d9b548"/>
      <stop offset=".17" stop-color="#cc9f30"/>
      <stop offset=".23" stop-color="#c39121"/>
      <stop offset=".28" stop-color="#c18d1c"/>
      <stop offset=".42" stop-color="#e5c85d"/>
      <stop offset=".48" stop-color="#f7e47d"/>
      <stop offset=".53" stop-color="#e5cb62"/>
      <stop offset=".6" stop-color="#cfac40"/>
      <stop offset=".68" stop-color="#bf9528"/>
      <stop offset=".74" stop-color="#b58719"/>
      <stop offset=".8" stop-color="#b28314"/>
      <stop offset=".83" stop-color="#bb9022"/>
      <stop offset=".91" stop-color="#d4b347"/>
      <stop offset="1" stop-color="#f7e47d"/>
    </linearGradient>
    <linearGradient id="linear-gradient-2" x1="39.63" y1="-1.54" x2="39.63" y2="97.19" xlink:href="#linear-gradient"/>
    <linearGradient id="linear-gradient-3" x1="39.63" y1="-1.54" x2="39.63" y2="97.19" xlink:href="#linear-gradient"/>
    <linearGradient id="linear-gradient-4" x1="45.05" y1="-1.54" x2="45.05" y2="97.19" xlink:href="#linear-gradient"/>
    <linearGradient id="linear-gradient-5" x1="43.48" y1="-1.54" x2="43.48" y2="97.19" xlink:href="#linear-gradient"/>
    <linearGradient id="linear-gradient-6" x1="37.45" y1="-1.54" x2="37.45" y2="97.19" xlink:href="#linear-gradient"/>
    <linearGradient id="linear-gradient-7" x1="25.64" y1="-1.54" x2="25.64" y2="97.19" xlink:href="#linear-gradient"/>
    <linearGradient id="linear-gradient-8" x1="51.32" y1="-1.54" x2="51.32" y2="97.19" xlink:href="#linear-gradient"/>
    <linearGradient id="linear-gradient-9" x1="53.61" y1="-1.54" x2="53.61" y2="97.19" xlink:href="#linear-gradient"/>
    <linearGradient id="linear-gradient-10" x1="53.61" y1="-1.54" x2="53.61" y2="97.19" xlink:href="#linear-gradient"/>
    <linearGradient id="linear-gradient-11" x1="48.19" y1="-1.54" x2="48.19" y2="97.19" xlink:href="#linear-gradient"/>
    <linearGradient id="linear-gradient-12" x1="49.75" y1="-1.54" x2="49.75" y2="97.19" xlink:href="#linear-gradient"/>
    <linearGradient id="linear-gradient-13" x1="55.79" y1="-1.54" x2="55.79" y2="97.19" xlink:href="#linear-gradient"/>
    <linearGradient id="linear-gradient-14" x1="67.6" y1="-1.54" x2="67.6" y2="97.19" xlink:href="#linear-gradient"/>
    <linearGradient id="linear-gradient-15" x1="46.62" y1="-1.54" x2="46.62" y2="97.19" xlink:href="#linear-gradient"/>
    <linearGradient id="linear-gradient-16" x1="46.62" y1="-1.54" x2="46.62" y2="97.19" xlink:href="#linear-gradient"/>
    <linearGradient id="linear-gradient-17" x1="46.62" y1="-1.54" x2="46.62" y2="97.19" xlink:href="#linear-gradient"/>
    <linearGradient id="linear-gradient-18" x1="46.62" y1="-1.54" x2="46.62" y2="97.19" xlink:href="#linear-gradient"/>
    <linearGradient id="linear-gradient-19" x1="46.62" y1="-1.54" x2="46.62" y2="97.19" xlink:href="#linear-gradient"/>
    <linearGradient id="linear-gradient-20" x1="3.76" y1="-89.65" x2="612.58" y2="519.17" xlink:href="#linear-gradient"/>
    <linearGradient id="linear-gradient-21" x1="39.46" y1="-125.35" x2="648.28" y2="483.47" xlink:href="#linear-gradient"/>
    <linearGradient id="linear-gradient-22" x1="92.68" y1="-178.57" x2="701.5" y2="430.25" xlink:href="#linear-gradient"/>
    <linearGradient id="linear-gradient-23" x1="140.97" y1="-226.86" x2="749.79" y2="381.96" xlink:href="#linear-gradient"/>
    <linearGradient id="linear-gradient-24" x1="196.1" y1="-281.99" x2="804.92" y2="326.83" xlink:href="#linear-gradient"/>
    <linearGradient id="linear-gradient-25" x1="235.05" y1="-320.94" x2="843.87" y2="287.88" xlink:href="#linear-gradient"/>
    <linearGradient id="linear-gradient-26" x1="276.16" y1="-362.06" x2="884.98" y2="246.76" xlink:href="#linear-gradient"/>
    <linearGradient id="linear-gradient-27" x1="39.42" y1="-125.32" x2="648.24" y2="483.5" xlink:href="#linear-gradient"/>
    <linearGradient id="linear-gradient-28" x1="58.56" y1="-144.45" x2="667.38" y2="464.37" xlink:href="#linear-gradient"/>
    <linearGradient id="linear-gradient-29" x1="84.99" y1="-170.88" x2="693.81" y2="437.94" xlink:href="#linear-gradient"/>
    <linearGradient id="linear-gradient-30" x1="-32.05" y1="-53.84" x2="576.77" y2="554.97" xlink:href="#linear-gradient"/>
    <linearGradient id="linear-gradient-31" x1="162.54" y1="-248.43" x2="771.36" y2="360.39" xlink:href="#linear-gradient"/>
  </defs>
  <g id="Layer_1-2" data-name="Layer 1">
    <g>
      <g>
        <g>
          <g>
            <rect class="cls-21" x="37.21" y="44.85" width="9.41" height="1.43"/>
            <rect class="cls-1" x="32.64" y="55.72" width="13.98" height="1.43"/>
            <rect class="cls-20" x="32.64" y="61.15" width="13.98" height="1.43"/>
            <rect class="cls-27" x="43.48" y="33.99" width="3.14" height="1.43"/>
            <rect class="cls-15" x="40.35" y="39.42" width="6.27" height="1.43"/>
            <rect class="cls-8" x="33.71" y="50.29" width="7.48" height="1.43"/>
            <path class="cls-16" d="M46.62,66.59v1.43H4.72s-.04-.08-.06-.12l.87-1.51h0s2.31-4.01,2.31-4.01l.93-1.62,15.88-27.5,6.27,10.87,.62,1.07-1.24,.72-.21-.36-5.44-9.43-15.23,26.37-.9,1.56-1.46,2.53H46.62Z"/>
            <rect class="cls-28" x="46.62" y="44.85" width="9.41" height="1.43"/>
            <rect class="cls-18" x="46.62" y="55.72" width="13.98" height="1.43"/>
            <rect class="cls-10" x="46.62" y="61.15" width="13.98" height="1.43"/>
            <rect class="cls-9" x="46.62" y="33.99" width="3.14" height="1.43"/>
            <rect class="cls-29" x="46.62" y="39.42" width="6.27" height="1.43"/>
            <rect class="cls-30" x="52.05" y="50.29" width="7.48" height="1.43"/>
            <path class="cls-6" d="M88.57,67.91s-.04,.08-.06,.12H46.62v-1.43h39.54l-1.46-2.53-.9-1.56-15.23-26.37-5.44,9.43-.21,.36-1.24-.72,.62-1.07,6.27-10.87,15.88,27.5,.94,1.62,2.31,4,.87,1.52Z"/>
            <polygon class="cls-3" points="61.31 67.31 59.88 67.31 59.88 53.05 46.62 30.07 33.36 53.05 33.36 67.31 31.92 67.31 31.92 52.66 46.62 27.21 61.31 52.66 61.31 67.31"/>
            <polygon class="cls-11" points="66.43 67.31 65 67.31 65 51.67 46.62 19.84 28.24 51.67 28.24 67.31 26.8 67.31 26.8 51.29 46.62 16.97 66.43 51.29 66.43 67.31"/>
          </g>
          <path class="cls-2" d="M40.47,44.85v12.3h12.3v-12.3h-12.3Zm10.87,10.87h-9.43v-9.44h9.43v9.44Z"/>
        </g>
        <path class="cls-4" d="M46.62,.97C20.91,.97,0,21.88,0,47.59c0,7.28,1.68,14.17,4.66,20.32,.02,.04,.04,.08,.06,.12,7.59,15.49,23.52,26.18,41.89,26.18s34.31-10.69,41.9-26.18c.02-.04,.04-.08,.06-.12,2.99-6.15,4.66-13.04,4.66-20.32C93.24,21.88,72.32,.97,46.62,.97Zm41.08,65.42c-.25,.55-.51,1.1-.79,1.63-7.47,14.68-22.73,24.75-40.29,24.75S13.8,82.7,6.33,68.02c-.28-.54-.54-1.08-.79-1.63h0c-2.63-5.73-4.1-12.1-4.1-18.8C1.43,22.67,21.7,2.4,46.62,2.4s45.19,20.27,45.19,45.18c0,6.71-1.47,13.08-4.1,18.8Z"/>
        <path class="cls-26" d="M81.89,66.59c-.26,.48-.53,.96-.82,1.43-6.99,11.74-19.82,19.63-34.45,19.63s-27.46-7.89-34.45-19.63c-.28-.47-.55-.95-.82-1.43h-1.62c.25,.48,.51,.96,.78,1.43,7.14,12.57,20.65,21.06,36.11,21.06s28.97-8.5,36.11-21.06c.27-.47,.53-.95,.78-1.43h-1.62ZM46.62,6.09C23.74,6.09,5.12,24.71,5.12,47.59c0,5.21,.97,10.2,2.73,14.8,.21,.57,.44,1.13,.69,1.68l.9-1.56c-.23-.57-.45-1.15-.65-1.74-1.45-4.13-2.23-8.56-2.23-13.18C6.55,25.49,24.52,7.52,46.62,7.52s40.07,17.97,40.07,40.07c0,4.62-.78,9.06-2.23,13.18-.2,.59-.42,1.16-.65,1.73l.9,1.56c.24-.55,.47-1.11,.69-1.68,1.76-4.6,2.73-9.59,2.73-14.8,0-22.88-18.62-41.5-41.5-41.5Z"/>
      </g>
      <polygon class="cls-7" points="107.84 92.21 154.7 13.31 110.54 13.31 110.54 2.57 173.76 2.57 126.64 81.87 171.74 81.87 171.74 92.21 107.84 92.21"/>
      <path class="cls-13" d="M261.39,92.21l-10.72-24.03h-36.92l-10.64,24.03h-13.53L232.25,0l42.67,92.21h-13.53Zm-44.72-33.57h31.12l-15.54-36.4-15.58,36.4Z"/>
      <path class="cls-19" d="M345.41,92.21l-23.62-35.38h-12.55v35.38h-11.94V2.57h26.93c6.44,0,12.12,1.15,16.87,3.42,4.68,2.24,8.34,5.39,10.9,9.39,2.55,3.99,3.84,8.79,3.84,14.26s-1.29,10.3-3.84,14.33c-2.55,4.03-6.22,7.21-10.89,9.44-1.45,.69-3.01,1.29-4.62,1.77l-2.55,.76,25.73,36.26h-14.24Zm-36.17-44.51h14.32c3.82,0,7.25-.69,10.2-2.04,3.04-1.39,5.44-3.45,7.15-6.11,1.71-2.66,2.57-5.86,2.57-9.51s-.87-6.97-2.58-9.59c-1.71-2.61-4.11-4.64-7.14-6.03-2.95-1.36-6.39-2.04-10.2-2.04h-14.32V47.7Z"/>
      <polygon class="cls-25" points="434.86 92.21 395.75 45.35 395.75 92.21 383.41 92.21 383.41 2.57 395.75 2.57 395.75 44.47 433.22 2.57 447.04 2.57 409.42 44.41 449.25 92.21 434.86 92.21"/>
      <rect class="cls-17" x="519.44" y="2.57" width="12.07" height="89.64"/>
      <path class="cls-14" d="M604.04,93.81c-6.58,0-12.8-1.12-18.46-3.34-5.65-2.21-10.62-5.43-14.77-9.59-4.16-4.16-7.46-9.14-9.8-14.8-2.34-5.66-3.52-11.95-3.52-18.7s1.19-13.04,3.52-18.7c2.34-5.66,5.64-10.64,9.8-14.8,4.15-4.15,9.12-7.38,14.77-9.59,5.67-2.22,11.88-3.34,18.46-3.34s12.12,.81,16.42,2.42c4.05,1.51,7.89,3.68,11.44,6.47v13.08c-1.41-1.28-2.93-2.49-4.55-3.62-3.03-2.1-6.46-3.77-10.17-4.98-3.74-1.21-7.98-1.83-12.61-1.83-6,0-11.63,1.45-16.75,4.32-5.12,2.87-9.31,6.96-12.45,12.16-3.15,5.21-4.75,11.41-4.75,18.41s1.6,13.08,4.74,18.33c3.14,5.25,7.33,9.37,12.45,12.23,5.11,2.86,10.75,4.31,16.75,4.31,4.63,0,8.87-.62,12.61-1.83,3.71-1.21,7.14-2.88,10.17-4.98,1.62-1.12,3.14-2.33,4.55-3.62v13.08c-3.55,2.79-7.4,4.97-11.44,6.47-4.31,1.6-9.83,2.42-16.42,2.42Z"/>
      <polygon class="cls-31" points="661.75 92.21 661.75 2.57 709.47 2.57 709.47 12.91 673.42 12.91 673.42 40.09 708.13 40.09 708.13 50.02 673.42 50.02 673.42 92.21 661.75 92.21"/>
      <g>
        <g>
          <polygon class="cls-22" points="299.54 159.01 299.54 116.28 305.23 116.28 305.23 154.08 322.92 154.08 322.92 159.01 299.54 159.01"/>
          <polygon class="cls-5" points="337.81 159.01 337.81 116.28 343.5 116.28 343.5 154.08 361.2 154.08 361.2 159.01 337.81 159.01"/>
          <path class="cls-23" d="M393.83,159.77c-3.14,0-6.1-.54-8.8-1.59-2.69-1.05-5.06-2.59-7.04-4.57-1.98-1.98-3.56-4.36-4.67-7.05-1.12-2.69-1.68-5.69-1.68-8.91s.57-6.22,1.68-8.91c1.12-2.7,2.69-5.07,4.67-7.05,1.98-1.98,4.35-3.52,7.04-4.57,2.7-1.06,5.66-1.59,8.8-1.59s5.78,.39,7.83,1.15c1.93,.72,3.76,1.76,5.45,3.08v6.23c-.67-.61-1.4-1.19-2.17-1.72-1.44-1-3.07-1.8-4.85-2.38-1.78-.58-3.8-.87-6.01-.87-2.86,0-5.55,.69-7.98,2.06-2.44,1.37-4.44,3.32-5.93,5.8-1.5,2.49-2.26,5.44-2.26,8.77s.76,6.23,2.26,8.74c1.5,2.5,3.5,4.47,5.94,5.83,2.44,1.36,5.12,2.06,7.98,2.06,2.21,0,4.23-.29,6.01-.87,1.77-.58,3.4-1.38,4.85-2.38,.77-.54,1.5-1.11,2.17-1.72v6.23c-1.69,1.33-3.52,2.37-5.45,3.08-2.05,.76-4.69,1.15-7.83,1.15Z"/>
        </g>
        <rect class="cls-24" x="47.58" y="135.62" width="223.73" height="4.05"/>
        <rect class="cls-12" x="435.34" y="135.62" width="226.55" height="4.05"/>
      </g>
    </g>
  </g>
</svg>