<?xml version="1.0" encoding="UTF-8"?>
<svg id="Layer_2" data-name="Layer 2" xmlns="http://www.w3.org/2000/svg" viewBox="0 0 347.82 433.5">
  <g id="Layer_1-2" data-name="Layer 1">
    <g>
      <g>
        <g>
          <g>
            <g>
              <rect x="144.17" y="150.5" width="27.58" height="4.2"/>
              <rect x="130.78" y="182.35" width="40.97" height="4.2"/>
              <rect x="130.78" y="198.26" width="40.97" height="4.2"/>
              <rect x="162.56" y="118.64" width="9.19" height="4.2"/>
              <rect x="153.37" y="134.57" width="18.38" height="4.2"/>
              <rect x="133.91" y="166.42" width="21.92" height="4.2"/>
              <path d="M171.75,214.2v4.2H48.97c-.06-.12-.12-.23-.18-.35l2.56-4.43h0s6.78-11.74,6.78-11.74l2.74-4.74,46.53-80.59,18.38,31.85,1.82,3.15-3.64,2.1-.61-1.05-15.95-27.65-44.62,77.28-2.64,4.57-4.27,7.4h115.88Z"/>
              <rect x="171.75" y="150.5" width="27.58" height="4.2"/>
              <rect x="171.75" y="182.35" width="40.97" height="4.2"/>
              <rect x="171.75" y="198.26" width="40.97" height="4.2"/>
              <rect x="171.75" y="118.64" width="9.19" height="4.2"/>
              <rect x="171.75" y="134.57" width="18.38" height="4.2"/>
              <rect x="187.68" y="166.42" width="21.91" height="4.2"/>
              <path d="M294.71,218.06c-.06,.11-.11,.23-.17,.34h-122.79v-4.2h115.89l-4.27-7.4-2.64-4.57-44.63-77.28-15.95,27.65-.61,1.05-3.64-2.1,1.82-3.15,18.38-31.85,46.54,80.6,2.74,4.74,6.77,11.73,2.56,4.44Z"/>
              <polygon points="214.82 216.3 210.62 216.3 210.62 174.51 171.75 107.18 132.88 174.51 132.88 216.3 128.68 216.3 128.68 173.38 171.75 98.77 214.82 173.38 214.82 216.3"/>
              <polygon points="229.82 216.3 225.62 216.3 225.62 170.48 171.75 77.17 117.88 170.48 117.88 216.3 113.68 216.3 113.68 169.35 171.75 68.78 229.82 169.35 229.82 216.3"/>
            </g>
            <path d="M153.73,150.49v36.06h36.05v-36.06h-36.05Zm31.85,31.86h-27.65v-27.66h27.65v27.66Z"/>
          </g>
          <path d="M171.75,21.89c-75.33,0-136.62,61.29-136.62,136.62,0,21.33,4.91,41.53,13.66,59.54,.06,.12,.12,.23,.18,.35,22.23,45.39,68.92,76.73,122.78,76.73s100.56-31.34,122.79-76.73c.06-.11,.11-.23,.17-.34,8.76-18.01,13.67-38.21,13.67-59.55,0-75.33-61.29-136.62-136.63-136.62Zm120.4,191.73c-.73,1.61-1.5,3.21-2.31,4.78-21.9,43.01-66.61,72.53-118.09,72.53s-96.19-29.52-118.08-72.53c-.81-1.58-1.58-3.16-2.32-4.78h0c-7.72-16.79-12.02-35.46-12.02-55.11,0-73.02,59.4-132.42,132.42-132.42s132.43,59.4,132.43,132.42c0,19.66-4.3,38.32-12.03,55.11Z"/>
          <path d="M275.11,214.2c-.77,1.42-1.56,2.82-2.39,4.2-20.49,34.42-58.08,57.53-100.97,57.53s-80.48-23.11-100.96-57.53c-.83-1.38-1.62-2.78-2.39-4.2h-4.75c.73,1.42,1.49,2.82,2.28,4.2,20.92,36.83,60.52,61.73,105.82,61.73s84.91-24.9,105.83-61.73c.79-1.38,1.55-2.78,2.28-4.2h-4.75ZM171.75,36.89c-67.06,0-121.62,54.56-121.62,121.62,0,15.27,2.83,29.9,8,43.37,.63,1.66,1.3,3.3,2.01,4.92l2.64-4.57c-.68-1.67-1.32-3.37-1.91-5.09-4.24-12.1-6.54-25.1-6.54-38.63,0-64.75,52.67-117.42,117.42-117.42s117.43,52.67,117.43,117.42c0,13.53-2.3,26.54-6.54,38.64-.59,1.72-1.23,3.41-1.91,5.08l2.64,4.57c.71-1.62,1.38-3.25,2.01-4.91,5.17-13.48,8-28.1,8-43.38,0-67.06-54.56-121.62-121.63-121.62Z"/>
        </g>
        <g>
          <polygon points="25.11 97.81 25.9 96.12 30.89 98.44 33.84 92.09 28.85 89.77 29.64 88.07 41.4 93.53 40.61 95.23 35.45 92.83 32.5 99.18 37.66 101.58 36.87 103.28 25.11 97.81"/>
          <path d="M36.63,102.61l-10.85-5.04,.37-.79,10.85,5.04-.37,.79Zm3.74-8.05l-10.85-5.04,.37-.79,10.85,5.04-.37,.79Zm-8.58,4.95l-.7-.32,3.46-7.44,.7,.32-3.46,7.44Z"/>
          <path d="M44.24,82.35c-.39,0-.78-.04-1.17-.11-.85-.16-1.67-.49-2.45-1-.78-.51-1.42-1.13-1.9-1.84-.48-.71-.81-1.5-.98-2.33-.17-.84-.16-1.7,.01-2.56,.17-.86,.52-1.7,1.04-2.49,.52-.79,1.15-1.45,1.86-1.96,.72-.51,1.5-.85,2.33-1.04,.45-.1,.91-.15,1.37-.15,.38,0,.77,.03,1.15,.1,.85,.15,1.68,.49,2.47,1,.79,.51,1.43,1.14,1.91,1.86,.48,.72,.81,1.5,.97,2.33,.17,.83,.16,1.69-.01,2.55-.17,.86-.52,1.7-1.04,2.49-.52,.8-1.15,1.45-1.86,1.96-.72,.51-1.5,.85-2.34,1.04-.45,.1-.91,.15-1.36,.15Zm.06-11.6c-.32,0-.64,.03-.96,.1-.59,.12-1.16,.37-1.67,.73-.52,.36-.98,.84-1.36,1.42-.38,.58-.64,1.19-.76,1.81-.12,.62-.12,1.24,0,1.83,.12,.6,.36,1.17,.7,1.68,.34,.51,.81,.96,1.39,1.34,.57,.37,1.17,.62,1.78,.73,.29,.05,.57,.08,.86,.08,.32,0,.65-.03,.97-.1,.6-.13,1.16-.38,1.68-.74,.52-.36,.97-.84,1.36-1.42,.38-.58,.64-1.19,.76-1.81,.12-.62,.12-1.23,0-1.83-.12-.6-.37-1.16-.71-1.68-.35-.52-.82-.97-1.39-1.34-.58-.38-1.18-.63-1.79-.74-.29-.05-.57-.08-.85-.08Z"/>
          <path d="M49.39,78.94c-.49,.74-1.06,1.35-1.73,1.82-.67,.47-1.39,.79-2.16,.96-.77,.17-1.55,.18-2.33,.04s-1.54-.45-2.26-.93c-.73-.47-1.31-1.04-1.76-1.7-.45-.66-.75-1.38-.9-2.15-.15-.77-.15-1.56,.01-2.36,.16-.8,.49-1.57,.97-2.32,.49-.74,1.06-1.35,1.73-1.82,.67-.47,1.38-.79,2.15-.96,.76-.17,1.54-.18,2.32-.04s1.55,.45,2.28,.93c.73,.48,1.32,1.05,1.77,1.72,.44,.66,.74,1.38,.89,2.15,.15,.77,.15,1.55-.01,2.35s-.49,1.57-.97,2.32Zm-.67-.44c.42-.64,.69-1.3,.83-1.99,.14-.69,.13-1.36,0-2.02-.14-.66-.4-1.28-.79-1.85-.39-.57-.9-1.07-1.53-1.48-.64-.42-1.3-.69-1.97-.81-.68-.12-1.35-.11-2.01,.03s-1.28,.41-1.86,.81c-.57,.4-1.07,.92-1.49,1.56-.42,.64-.69,1.3-.83,1.99-.14,.69-.14,1.36,0,2.03,.14,.67,.39,1.29,.78,1.86s.89,1.06,1.53,1.48c.63,.41,1.28,.68,1.97,.81,.68,.13,1.35,.12,2.02-.03,.67-.14,1.29-.42,1.86-.82,.57-.4,1.07-.92,1.49-1.56Z"/>
          <polygon points="49.84 57.04 50.86 55.91 60.75 58.04 57.67 48.41 58.68 47.3 68.3 56 67.05 57.37 60.46 51.41 63.02 59.44 62.35 60.19 54.13 58.43 60.69 64.38 59.44 65.75 49.84 57.04"/>
          <path d="M59.41,65.05l-8.86-8.04,.49-.54,10.84,2.33-.26,.29-3.38-10.55,.48-.53,8.87,8.03-.57,.63-7.9-7.14,.16-.18,3.18,9.98-.29,.32-10.25-2.19,.17-.19,7.89,7.16-.57,.63Z"/>
          <polygon points="68.01 38.66 74.97 32.95 76.1 34.33 70.59 38.86 72.95 41.73 77.88 37.68 79 39.05 74.07 43.1 76.55 46.12 82.26 41.43 83.39 42.81 76.24 48.69 68.01 38.66"/>
          <path d="M76.31,47.98l-7.59-9.25,6.18-5.08,.5,.61-5.51,4.52,6.6,8.03,5.71-4.69,.5,.61-6.38,5.24Zm-3.02-4.89l-.49-.59,5.01-4.11,.49,.59-5.01,4.11Z"/>
          <polygon points="96.76 18.85 104.79 14.78 105.6 16.37 99.24 19.6 101.1 23.27 106.78 20.38 107.59 21.98 101.9 24.86 104.29 29.57 102.63 30.42 96.76 18.85"/>
          <path d="M102.85,29.75l-5.41-10.67,7.14-3.62,.36,.7-6.36,3.22,5.06,9.97-.78,.39Zm-1.7-5.06l-.36-.7,5.78-2.93,.36,.7-5.78,2.93Z"/>
          <path d="M122.12,21.27c-.88-.04-1.71-.25-2.48-.62-.77-.37-1.45-.88-2.02-1.53-.57-.64-1.01-1.41-1.31-2.29-.3-.88-.42-1.76-.36-2.62,.06-.86,.28-1.68,.67-2.44,.38-.76,.92-1.44,1.58-2.01,.67-.57,1.46-1.01,2.36-1.32,.78-.27,1.57-.4,2.34-.4,.11,0,.22,0,.33,0,.88,.04,1.71,.25,2.47,.62,.76,.37,1.44,.88,2.01,1.52,.58,.64,1.02,1.42,1.33,2.31,.3,.89,.42,1.78,.36,2.64-.06,.86-.29,1.68-.67,2.43-.38,.75-.91,1.43-1.58,2-.67,.57-1.46,1.01-2.35,1.32-.79,.27-1.57,.4-2.34,.4-.11,0-.22,0-.33,0Zm.7-11.42c-.55,0-1.12,.1-1.69,.29-.66,.22-1.23,.55-1.71,.96-.48,.41-.86,.9-1.13,1.45-.27,.55-.43,1.14-.48,1.75-.04,.62,.05,1.26,.27,1.91,.22,.65,.54,1.21,.95,1.67,.41,.47,.9,.84,1.45,1.1,.55,.27,1.15,.42,1.78,.45,.09,0,.17,0,.26,0,.55,0,1.12-.1,1.69-.29,.66-.22,1.24-.55,1.71-.96,.48-.41,.86-.9,1.12-1.44,.27-.55,.43-1.14,.47-1.76,.04-.62-.05-1.26-.27-1.91-.22-.66-.55-1.22-.96-1.68-.41-.46-.9-.83-1.45-1.1-.54-.27-1.14-.42-1.77-.46-.09,0-.17,0-.26,0Z"/>
          <path d="M124.63,20.4c-.84,.29-1.67,.41-2.48,.37s-1.58-.23-2.29-.57c-.71-.34-1.33-.81-1.86-1.41-.53-.6-.93-1.3-1.21-2.12-.28-.82-.39-1.63-.34-2.42,.05-.8,.26-1.54,.61-2.25s.84-1.32,1.46-1.85,1.35-.94,2.19-1.23c.84-.29,1.67-.41,2.48-.37,.81,.04,1.57,.23,2.28,.57,.7,.34,1.32,.8,1.86,1.4,.53,.59,.94,1.31,1.23,2.14,.28,.83,.39,1.64,.34,2.44-.06,.8-.27,1.54-.62,2.24-.35,.7-.84,1.31-1.46,1.84s-1.35,.94-2.19,1.23Zm-.26-.76c.72-.25,1.35-.6,1.88-1.06,.53-.46,.95-.99,1.24-1.6,.3-.61,.47-1.26,.52-1.95,.05-.69-.05-1.39-.29-2.1-.25-.72-.6-1.34-1.06-1.85s-.99-.92-1.6-1.22c-.61-.3-1.26-.47-1.96-.51-.7-.04-1.41,.07-2.13,.31-.72,.25-1.35,.6-1.88,1.06s-.95,.99-1.25,1.6c-.3,.61-.48,1.26-.53,1.94s.05,1.39,.3,2.11c.24,.71,.59,1.33,1.05,1.84,.46,.52,1,.93,1.61,1.22,.61,.3,1.27,.46,1.97,.5,.7,.04,1.41-.07,2.13-.31Z"/>
          <path d="M138.36,3.53l4.71-.87c.52-.1,1.03-.15,1.49-.15,.95,0,1.8,.2,2.51,.6,1.1,.61,1.79,1.64,2.05,3.04,.17,.91,.1,1.75-.21,2.5-.31,.74-.83,1.38-1.55,1.88l3.94,3.8-2.18,.4-3.51-3.38c-.28,.08-.58,.16-.9,.21l-2.87,.53,.71,3.85-1.84,.34-2.35-12.75Zm3.16,6.82l2.87-.53c1.14-.21,1.96-.61,2.43-1.19,.46-.57,.61-1.26,.45-2.13-.16-.88-.55-1.48-1.17-1.84-.41-.24-.94-.36-1.56-.36-.35,0-.73,.04-1.14,.11l-2.87,.53,1,5.41Z"/>
          <path d="M141.11,15.7l-2.17-11.77,4.22-.78c1.48-.27,2.7-.14,3.67,.4,.97,.54,1.57,1.44,1.8,2.69,.15,.82,.09,1.56-.18,2.22-.27,.66-.73,1.21-1.38,1.66-.65,.45-1.46,.76-2.45,.95l-3.75,.69,.31-.47,.78,4.25-.86,.16Zm.08-4.36l-.46-.33,3.75-.69c1.27-.23,2.18-.69,2.73-1.37,.55-.68,.74-1.53,.55-2.54-.19-1.02-.66-1.75-1.42-2.18-.76-.43-1.77-.53-3.04-.3l-3.75,.69,.31-.49,1.33,7.21Zm8.09,2.86l-3.85-3.71,.98-.18,3.85,3.71-.97,.18Z"/>
          <polygon points="175.79 13.11 176.17 1.93 171.87 1.79 171.93 0 182.41 .36 182.35 2.15 178.04 2 177.66 13.17 175.79 13.11"/>
          <path d="M176.3,12.63l.39-11.17-4.31-.15,.03-.79,9.48,.33-.03,.79-4.31-.15-.39,11.17-.87-.03Z"/>
          <polygon points="199.74 15.74 200.7 10.13 193.8 8.94 192.84 14.55 191 14.24 193.19 1.46 195.03 1.77 194.1 7.2 201 8.38 201.93 2.96 203.78 3.28 201.58 16.06 199.74 15.74"/>
          <path d="M191.57,13.83l2.02-11.79,.86,.15-2.02,11.79-.86-.15Zm1.72-5.48l.13-.76,8.09,1.39-.13,.76-8.09-1.39Zm7.02,6.98l2.02-11.79,.86,.15-2.02,11.79-.86-.15Z"/>
          <polygon points="212.07 18.71 216.03 6.37 224.6 9.12 224.06 10.82 217.27 8.64 216.13 12.18 222.2 14.13 221.66 15.82 215.59 13.87 214.4 17.58 221.43 19.84 220.88 21.54 212.07 18.71"/>
          <path d="M212.7,18.39l3.66-11.39,7.62,2.45-.24,.75-6.79-2.18-3.18,9.9,7.03,2.26-.24,.75-7.86-2.53Zm2.47-5.18l.24-.73,6.17,1.98-.24,.73-6.17-1.98Z"/>
          <polygon points="241.71 31.03 248.27 19.84 256.04 24.4 255.14 25.94 248.99 22.33 246.91 25.88 252.41 29.11 251.5 30.65 246 27.42 243.33 31.98 241.71 31.03"/>
          <path d="M242.4,30.85l6.06-10.32,6.9,4.05-.4,.68-6.15-3.61-5.66,9.64-.75-.44Zm3.34-4.17l.4-.68,5.59,3.28-.4,.68-5.59-3.28Z"/>
          <path d="M264.04,46.17l.84-3.6-4.98-3.85-3.27,1.73-1.62-1.25,12.64-6.62,1.2,.92-3.2,13.91-1.62-1.25Zm1.28-5.46l1.3-5.56-5.04,2.67,3.74,2.88Z"/>
          <path d="M255.94,39.29l11.67-6.11,.69,.53-2.95,12.84-.74-.57,2.86-12.22,.3,.23-11.08,5.88-.74-.57Zm3.65-1.43l.68-.4,5.67,4.38-.22,.76-6.13-4.73Z"/>
          <polygon points="279.99 61.47 286.4 55.32 278.21 57.31 277.52 56.58 279.85 48.51 273.45 54.63 272.17 53.29 281.54 44.33 282.59 45.43 279.77 55.14 289.59 52.75 290.63 53.83 281.27 62.81 279.99 61.47"/>
          <path d="M272.88,53.31l8.65-8.27,.51,.53-3.09,10.64-.27-.28,10.76-2.63,.5,.52-8.64,8.28-.59-.62,7.69-7.37,.16,.17-10.18,2.47-.3-.31,2.91-10.07,.18,.19-7.7,7.36-.59-.62Z"/>
          <rect x="287.29" y="67.31" width="12.97" height="1.87" transform="translate(17.11 188.3) rotate(-36.54)"/>
          <path d="M288.71,71.45l9.62-7.12,.52,.7-9.61,7.13-.52-.7Z"/>
          <polygon points="295.29 81.92 306.46 75.33 307.41 76.94 297.78 82.62 301.28 88.56 299.74 89.46 295.29 81.92"/>
          <path d="M295.97,82.09l10.31-6.08,.44,.75-9.63,5.68,3.5,5.93-.68,.4-3.94-6.69Z"/>
          <polygon points="304.35 98.98 308.44 97.17 314.1 88.97 314.96 90.92 310.57 97.28 318.24 98.31 319.08 100.22 309.2 98.89 305.11 100.7 304.35 98.98"/>
          <path d="M305.01,99.24l3.97-1.76-.43,.42,5.45-7.91,.39,.88-4.95,7.18-.19-.44,8.65,1.16,.37,.83-9.52-1.28,.6-.04-3.97,1.76-.35-.8Z"/>
        </g>
        <g>
          <path d="M23.86,213.08c-.25,0-.52-.03-.78-.09-.65-.15-1.26-.51-1.82-1.07-.54-.55-.99-1.33-1.35-2.33-.32-.89-.47-1.8-.45-2.71,.02-.92,.2-1.71,.54-2.35l.18-.33,1.74,.35-.28,.58c-.23,.46-.36,1.05-.39,1.75-.03,.7,.08,1.4,.33,2.09,.25,.69,.53,1.21,.86,1.57,.3,.33,.62,.54,.94,.63,.14,.04,.27,.06,.41,.06,.18,0,.35-.03,.53-.09,.37-.13,.61-.32,.75-.57,.16-.29,.25-.64,.27-1.05,.02-.45,0-.94-.05-1.45-.06-.54-.11-1.09-.16-1.65-.05-.59-.04-1.15,.03-1.68,.08-.58,.28-1.1,.61-1.55,.34-.47,.86-.83,1.54-1.07,.39-.14,.78-.21,1.18-.21,.24,0,.48,.03,.73,.08,.64,.14,1.25,.49,1.81,1.05,.54,.54,.99,1.31,1.35,2.3,.24,.67,.38,1.37,.42,2.08,.04,.72-.03,1.39-.2,1.98l-.11,.4-1.77-.16,.15-.57c.14-.53,.19-1.08,.16-1.62-.04-.55-.14-1.06-.3-1.52-.23-.65-.52-1.16-.84-1.51-.3-.32-.62-.53-.94-.61-.13-.03-.26-.05-.39-.05-.19,0-.38,.03-.57,.1-.37,.13-.62,.32-.76,.57-.16,.29-.25,.63-.27,1.03-.02,.45,0,.94,.06,1.46,.06,.55,.12,1.1,.16,1.65,.05,.57,.03,1.13-.04,1.66-.08,.57-.27,1.09-.59,1.55-.33,.47-.84,.83-1.52,1.08-.37,.13-.75,.2-1.13,.2Z"/>
          <path d="M20.39,209.42c-.3-.84-.44-1.68-.42-2.53s.18-1.56,.48-2.12l.74,.15c-.26,.53-.4,1.18-.44,1.95s.09,1.53,.35,2.28,.59,1.33,.96,1.74c.37,.41,.76,.67,1.18,.78,.41,.11,.83,.09,1.23-.05,.48-.17,.82-.44,1.02-.8s.31-.78,.33-1.26,0-.99-.06-1.52c-.06-.54-.11-1.08-.16-1.63-.05-.55-.04-1.08,.03-1.57,.06-.5,.24-.94,.52-1.32,.28-.38,.71-.68,1.3-.89,.54-.19,1.08-.23,1.63-.11s1.07,.42,1.56,.91c.49,.49,.9,1.2,1.23,2.12,.22,.62,.35,1.27,.39,1.94,.04,.67-.03,1.28-.18,1.82l-.77-.07c.15-.59,.21-1.18,.17-1.78s-.15-1.15-.33-1.65c-.26-.72-.57-1.28-.95-1.68-.37-.4-.77-.65-1.19-.75-.42-.1-.84-.08-1.26,.07-.48,.17-.82,.44-1.02,.79-.2,.36-.31,.77-.33,1.25-.02,.48,0,.99,.06,1.54,.06,.55,.12,1.09,.16,1.63s.03,1.06-.03,1.56c-.06,.5-.23,.94-.51,1.33s-.7,.69-1.28,.89c-.53,.19-1.07,.22-1.63,.09-.56-.13-1.08-.44-1.57-.94-.49-.5-.9-1.21-1.23-2.15Z"/>
          <polygon points="30.34 232.6 35.39 229.97 32.15 223.77 27.11 226.4 26.24 224.74 37.74 218.75 38.61 220.4 33.72 222.95 36.96 229.16 41.84 226.61 42.7 228.27 31.21 234.27 30.34 232.6"/>
          <path d="M26.92,224.95l10.61-5.53,.4,.77-10.61,5.53-.4-.77Zm4.1,7.87l10.61-5.53,.4,.77-10.61,5.53-.4-.77Zm1.3-9.82l.68-.36,3.79,7.28-.68,.36-3.79-7.28Z"/>
          <polygon points="37.95 245.12 48.52 237.6 53.74 244.93 52.28 245.97 48.15 240.16 45.12 242.32 48.82 247.51 47.37 248.54 43.68 243.34 40.5 245.61 44.78 251.62 43.32 252.66 37.95 245.12"/>
          <path d="M38.65,245.24l9.75-6.94,4.64,6.52-.64,.46-4.13-5.81-8.47,6.03,4.28,6.02-.64,.46-4.79-6.73Zm5.08-2.67l.63-.45,3.76,5.28-.63,.45-3.76-5.28Z"/>
          <polygon points="50.54 261.42 60.1 252.66 61.36 254.04 53.12 261.59 57.77 266.67 56.45 267.88 50.54 261.42"/>
          <path d="M51.24,261.45l8.83-8.08,.59,.64-8.25,7.55,4.65,5.08-.58,.53-5.24-5.73Z"/>
          <polygon points="65.12 276.01 72.48 267.58 69.23 264.75 70.41 263.41 78.31 270.3 77.13 271.65 73.89 268.81 66.53 277.24 65.12 276.01"/>
          <path d="M65.83,275.96l7.35-8.42-3.25-2.83,.52-.59,7.15,6.24-.52,.59-3.25-2.83-7.35,8.42-.66-.57Z"/>
          <polygon points="78.43 286.63 85.67 275.88 93.14 280.9 92.14 282.39 86.23 278.4 84.15 281.49 89.44 285.05 88.45 286.52 83.16 282.95 80.98 286.19 87.1 290.32 86.11 291.8 78.43 286.63"/>
          <path d="M79.12,286.5l6.69-9.93,6.64,4.47-.44,.65-5.91-3.98-5.81,8.62,6.13,4.13-.44,.65-6.85-4.61Zm3.82-4.29l.43-.64,5.37,3.62-.43,.64-5.37-3.62Z"/>
          <path d="M103.66,301.33l-.78-4.81c-.28-.1-.56-.23-.85-.37l-2.61-1.3-1.74,3.5-1.68-.83,5.78-11.61,4.29,2.14c1.45,.72,2.43,1.65,2.93,2.77,.51,1.15,.45,2.38-.19,3.66-.41,.83-.98,1.46-1.67,1.87-.65,.38-1.38,.57-2.19,.57h-.18s.87,5.4,.87,5.4l-1.99-.99Zm-.83-6.76c.77,.38,1.46,.58,2.06,.58,.21,0,.41-.02,.6-.07,.71-.18,1.24-.65,1.64-1.43,.4-.8,.45-1.51,.16-2.18-.3-.69-.97-1.3-2.01-1.81l-2.61-1.3-2.45,4.92,2.61,1.3Z"/>
          <path d="M96.67,297.3l5.33-10.71,3.84,1.91c1.35,.67,2.25,1.51,2.7,2.53,.45,1.01,.39,2.09-.18,3.23-.37,.75-.86,1.3-1.48,1.66s-1.31,.53-2.1,.5c-.79-.03-1.63-.27-2.53-.71l-3.41-1.7,.53-.19-1.93,3.87-.78-.39Zm2.68-3.44l-.17-.54,3.41,1.7c1.15,.57,2.15,.75,3.01,.54,.85-.21,1.5-.78,1.96-1.7,.46-.93,.52-1.79,.17-2.6-.35-.8-1.09-1.49-2.25-2.06l-3.41-1.7,.54-.21-3.27,6.57Zm4.75,7.14l-.85-5.27,.89,.44,.85,5.27-.89-.44Z"/>
          <polygon points="129.53 310.8 132.63 298.21 141.37 300.35 140.94 302.09 134.02 300.39 133.04 304.38 139.23 305.9 138.81 307.63 132.61 306.12 131.35 311.25 129.53 310.8"/>
          <path d="M130.14,310.43l2.85-11.62,7.77,1.91-.19,.76-6.92-1.7-2.66,10.86-.85-.21Zm2.01-4.95l.19-.76,6.29,1.54-.19,.76-6.29-1.54Z"/>
          <path d="M155.95,315.62c-.26,0-.53-.01-.8-.04-.94-.1-1.82-.35-2.59-.76-.78-.41-1.45-.94-2-1.6-.55-.66-.95-1.41-1.2-2.23-.25-.82-.33-1.71-.23-2.63,.09-.92,.35-1.77,.76-2.53,.41-.76,.96-1.41,1.62-1.94,.67-.53,1.43-.92,2.28-1.16,.6-.17,1.24-.26,1.89-.26,.26,0,.53,.01,.8,.04,.94,.1,1.81,.35,2.59,.75,.78,.41,1.45,.94,1.99,1.59,.54,.65,.94,1.39,1.2,2.22,.26,.83,.34,1.72,.24,2.65-.1,.94-.36,1.79-.77,2.55-.42,.75-.96,1.4-1.62,1.93-.66,.53-1.43,.92-2.27,1.16-.6,.17-1.24,.26-1.89,.26Zm-.24-11.35c-.48,0-.94,.06-1.37,.19-.6,.18-1.15,.46-1.63,.84-.48,.38-.87,.85-1.17,1.39-.3,.54-.48,1.16-.55,1.85-.07,.68-.01,1.32,.17,1.92,.18,.6,.47,1.14,.86,1.61,.39,.47,.87,.86,1.43,1.15,.56,.29,1.19,.48,1.89,.55,.2,.02,.39,.03,.59,.03,.48,0,.94-.06,1.37-.19,.6-.17,1.15-.46,1.62-.84,.47-.38,.86-.86,1.16-1.4,.3-.55,.48-1.17,.55-1.85,.07-.69,.01-1.34-.17-1.93-.18-.59-.47-1.13-.85-1.6-.38-.47-.86-.86-1.42-1.15-.56-.29-1.19-.48-1.89-.55-.2-.02-.39-.03-.59-.03Z"/>
          <path d="M155.2,315.08c-.88-.09-1.69-.32-2.41-.7-.72-.38-1.34-.87-1.84-1.48s-.87-1.29-1.11-2.06c-.23-.76-.3-1.57-.21-2.44,.09-.86,.32-1.64,.7-2.34,.38-.7,.88-1.3,1.5-1.79,.62-.49,1.32-.85,2.1-1.07,.78-.22,1.62-.29,2.5-.2,.88,.09,1.69,.32,2.41,.7,.72,.38,1.34,.87,1.84,1.47,.5,.6,.87,1.28,1.11,2.05,.24,.76,.31,1.58,.22,2.45-.09,.87-.33,1.66-.71,2.36-.39,.7-.89,1.29-1.5,1.78-.61,.49-1.31,.84-2.09,1.07s-1.62,.29-2.5,.2Zm.08-.8c.76,.08,1.48,.02,2.15-.18,.67-.2,1.27-.51,1.8-.93,.52-.43,.95-.94,1.28-1.55,.33-.61,.54-1.29,.61-2.03,.08-.76,.01-1.47-.19-2.12-.2-.66-.52-1.25-.95-1.77-.43-.52-.95-.95-1.57-1.28-.62-.33-1.31-.53-2.07-.61s-1.48-.02-2.15,.18c-.67,.2-1.28,.51-1.81,.93-.53,.43-.96,.94-1.29,1.54s-.54,1.28-.61,2.04c-.08,.75-.01,1.45,.19,2.12,.2,.66,.52,1.26,.95,1.78,.43,.53,.96,.95,1.58,1.28,.62,.33,1.31,.53,2.07,.61Z"/>
          <path d="M173.18,303.43l4.79-.2c.13,0,.26,0,.39,0,1.43,0,2.62,.34,3.51,1.02,1,.76,1.54,1.87,1.6,3.3,.04,.93-.15,1.75-.56,2.44-.41,.69-1.02,1.25-1.8,1.64l3.37,4.32-2.22,.09-3-3.84c-.29,.04-.6,.07-.92,.08l-2.92,.12,.16,3.91-1.87,.08-.53-12.96Zm2.17,7.2l2.92-.12c1.16-.05,2.02-.33,2.58-.84,.53-.5,.78-1.17,.74-2.04-.04-.89-.33-1.54-.9-1.98-.54-.42-1.32-.63-2.32-.63-.1,0-.21,0-.32,0l-2.92,.12,.22,5.49Z"/>
          <path d="M174.19,315.86l-.49-11.96,4.29-.18c1.5-.06,2.7,.24,3.58,.91,.88,.67,1.35,1.64,1.4,2.92,.03,.83-.13,1.55-.49,2.17-.36,.61-.9,1.1-1.6,1.45-.7,.35-1.56,.55-2.56,.59l-3.81,.16,.38-.43,.18,4.32-.87,.04Zm.7-4.31l-.41-.39,3.81-.16c1.29-.05,2.25-.38,2.89-.97,.64-.6,.94-1.41,.9-2.43-.04-1.04-.41-1.82-1.1-2.36-.69-.54-1.68-.78-2.96-.73l-3.81,.16,.38-.44,.3,7.33Zm7.6,3.97l-3.29-4.21,.99-.04,3.29,4.21-.99,.04Z"/>
          <polygon points="208.84 300.47 204.67 301.57 204.22 299.84 214.36 297.17 214.81 298.9 210.65 300 213.5 310.81 211.69 311.29 208.84 300.47"/>
          <path d="M212.04,310.67l-2.85-10.81-4.17,1.1-.2-.76,9.18-2.42,.2,.76-4.17,1.1,2.85,10.81-.84,.22Z"/>
          <polygon points="223.08 294.24 224.81 293.53 226.91 298.61 233.38 295.94 231.28 290.85 233.01 290.13 237.96 302.12 236.24 302.83 234.06 297.57 227.59 300.25 229.77 305.51 228.04 306.22 223.08 294.24"/>
          <path d="M228.31,305.57l-4.58-11.06,.81-.33,4.58,11.06-.81,.33Zm-1.47-5.55l-.29-.71,7.58-3.14,.29,.71-7.58,3.14Zm9.66,2.16l-4.58-11.06,.81-.33,4.58,11.06-.81,.33Z"/>
          <polygon points="242.79 285.17 250.56 280.61 251.46 282.15 245.32 285.76 247.2 288.96 252.7 285.74 253.59 287.26 248.09 290.49 250.07 293.86 256.44 290.12 257.34 291.66 249.36 296.35 242.79 285.17"/>
          <path d="M249.54,295.66l-6.06-10.32,6.9-4.05,.4,.68-6.15,3.61,5.26,8.96,6.37-3.74,.4,.68-7.12,4.18Zm-2.22-5.3l-.39-.66,5.59-3.28,.39,.66-5.59,3.28Z"/>
          <path d="M276.45,275.59c-.12,0-.23,0-.35-.02l-.37-.03-.35-1.74,.65,.03h.16c.48,0,1.02-.11,1.6-.33,.66-.24,1.26-.62,1.8-1.11,.53-.49,.91-.97,1.11-1.4,.19-.41,.26-.78,.21-1.11s-.18-.6-.4-.85c-.26-.29-.53-.44-.82-.47-.06,0-.13,0-.19,0-.28,0-.57,.06-.88,.17-.43,.16-.87,.37-1.31,.61-.47,.26-.96,.53-1.45,.79-.52,.27-1.04,.48-1.56,.63-.31,.09-.62,.13-.93,.13-.25,0-.5-.03-.74-.08-.56-.13-1.09-.46-1.59-1-.45-.49-.74-1.06-.86-1.7-.12-.65-.04-1.34,.26-2.08,.29-.71,.83-1.43,1.6-2.14,.52-.48,1.11-.88,1.75-1.2,.65-.32,1.3-.52,1.91-.59l.41-.05,.54,1.69-.58,.09c-.55,.08-1.07,.25-1.55,.49-.49,.25-.92,.54-1.28,.87-.51,.47-.86,.93-1.06,1.36-.18,.41-.25,.78-.19,1.11,.05,.33,.19,.61,.43,.87,.27,.29,.53,.44,.82,.47,.07,0,.14,.01,.21,.01,.27,0,.55-.06,.85-.17,.42-.16,.87-.37,1.32-.62,.48-.27,.97-.54,1.46-.79,.51-.27,1.03-.47,1.54-.62,.32-.09,.64-.13,.96-.13,.24,0,.47,.03,.7,.07,.56,.12,1.1,.45,1.58,.98,.44,.48,.73,1.06,.84,1.71,.12,.66,.03,1.36-.28,2.09-.29,.71-.84,1.43-1.62,2.15-.69,.64-1.47,1.14-2.31,1.47-.72,.29-1.4,.44-2.03,.44Z"/>
          <path d="M280.45,273.32c-.65,.6-1.37,1.06-2.16,1.38-.79,.32-1.5,.44-2.15,.39l-.15-.74c.59,.03,1.24-.09,1.96-.36,.72-.27,1.37-.67,1.96-1.22s.99-1.06,1.22-1.56c.23-.5,.32-.96,.26-1.39-.06-.43-.24-.8-.53-1.12-.35-.38-.73-.59-1.14-.63-.41-.04-.84,.02-1.29,.19-.45,.17-.91,.38-1.38,.65-.47,.26-.95,.52-1.44,.78-.49,.26-.98,.45-1.46,.59s-.95,.15-1.42,.04c-.46-.11-.91-.39-1.33-.85-.39-.42-.63-.9-.74-1.46-.11-.55-.03-1.15,.23-1.79,.26-.64,.75-1.3,1.47-1.96,.49-.45,1.03-.82,1.64-1.11,.61-.29,1.19-.47,1.75-.54l.24,.74c-.6,.09-1.17,.27-1.7,.54-.54,.27-1,.58-1.39,.95-.56,.52-.95,1.03-1.17,1.53-.22,.5-.3,.96-.23,1.39,.07,.43,.25,.8,.55,1.13,.35,.38,.72,.59,1.13,.63,.41,.04,.83-.02,1.28-.18,.45-.17,.92-.39,1.39-.66,.48-.27,.96-.53,1.44-.78,.48-.25,.96-.44,1.44-.58,.48-.13,.95-.15,1.42-.05,.46,.1,.9,.37,1.32,.83,.38,.41,.62,.9,.72,1.46,.1,.56,.02,1.17-.25,1.81-.27,.64-.77,1.3-1.5,1.97Z"/>
          <polygon points="285.46 252.63 282.68 255.92 281.32 254.76 288.09 246.75 289.45 247.91 286.67 251.2 295.21 258.41 294 259.84 285.46 252.63"/>
          <path d="M293.94,259.14l-8.54-7.22-2.78,3.29-.6-.51,6.13-7.25,.6,.51-2.78,3.29,8.54,7.22-.56,.67Z"/>
          <path d="M301.63,245.4c-.37,0-.75-.03-1.12-.1-.85-.15-1.67-.48-2.45-.98-.78-.5-1.42-1.12-1.91-1.83-.49-.71-.82-1.49-.99-2.33-.17-.83-.18-1.69,0-2.56,.17-.86,.51-1.7,1.03-2.5,.51-.8,1.14-1.46,1.85-1.97,.71-.51,1.49-.87,2.32-1.05,.47-.11,.94-.16,1.42-.16,.36,0,.74,.03,1.1,.09,.85,.14,1.68,.48,2.48,.99,.79,.51,1.44,1.13,1.92,1.84,.48,.71,.82,1.49,.99,2.32,.17,.83,.17,1.68,0,2.55-.17,.86-.51,1.7-1.03,2.5-.51,.8-1.13,1.46-1.85,1.97-.72,.51-1.5,.87-2.33,1.05-.46,.11-.94,.16-1.41,.16Zm.06-11.6c-.33,0-.67,.04-.99,.11-.59,.13-1.15,.38-1.67,.74-.51,.37-.97,.85-1.35,1.43-.38,.58-.63,1.2-.74,1.82-.12,.62-.11,1.24,.01,1.84s.37,1.16,.72,1.67c.35,.51,.82,.96,1.4,1.33,.57,.37,1.17,.61,1.79,.72,.27,.05,.55,.07,.82,.07h0c.33,0,.67-.04,1-.11,.6-.13,1.16-.39,1.68-.75,.52-.37,.97-.85,1.34-1.43,.38-.58,.63-1.2,.75-1.82,.12-.62,.11-1.23-.02-1.83-.13-.59-.37-1.16-.73-1.67-.35-.51-.82-.96-1.4-1.33-.58-.38-1.19-.62-1.79-.72-.28-.05-.55-.07-.82-.07Z"/>
          <path d="M306.8,241.94c-.48,.75-1.05,1.36-1.72,1.83-.66,.47-1.38,.8-2.15,.97-.77,.18-1.55,.19-2.33,.06-.78-.14-1.54-.44-2.27-.91-.73-.47-1.32-1.03-1.77-1.69s-.76-1.37-.92-2.14c-.16-.77-.16-1.56,0-2.36,.16-.8,.47-1.58,.95-2.32,.48-.75,1.05-1.36,1.72-1.83s1.38-.8,2.14-.97c.76-.17,1.54-.19,2.32-.06,.79,.13,1.55,.44,2.29,.91,.74,.47,1.33,1.04,1.78,1.7,.45,.66,.75,1.37,.91,2.14s.16,1.55,0,2.35c-.16,.8-.47,1.58-.95,2.32Zm-.68-.43c.41-.64,.68-1.31,.82-2,.13-.69,.12-1.36-.02-2.02s-.41-1.28-.8-1.85c-.39-.57-.9-1.06-1.54-1.47-.64-.41-1.3-.68-1.98-.79-.68-.12-1.35-.1-2.01,.04s-1.28,.42-1.85,.82c-.57,.4-1.06,.93-1.48,1.57s-.68,1.31-.81,2c-.13,.69-.13,1.37,.01,2.03s.4,1.28,.79,1.85c.39,.57,.9,1.06,1.54,1.47,.63,.41,1.29,.67,1.97,.79s1.35,.11,2.02-.04,1.28-.43,1.86-.83,1.06-.93,1.48-1.57Z"/>
          <path d="M304.55,220.61l1.98-4.36c.67-1.47,1.57-2.49,2.67-3.02,.54-.26,1.12-.4,1.71-.4,.63,0,1.29,.15,1.96,.46,.84,.38,1.49,.92,1.92,1.6,.43,.68,.65,1.47,.65,2.35l5.37-1.06-.92,2.02-4.78,.94c-.09,.28-.21,.57-.34,.86l-1.21,2.66,3.56,1.62-.78,1.7-11.8-5.37Zm7.4,1.31l1.21-2.66c.48-1.06,.62-1.96,.41-2.68-.2-.7-.69-1.22-1.49-1.59-.44-.2-.86-.3-1.24-.3-.33,0-.64,.07-.94,.21-.67,.32-1.26,1.02-1.74,2.07l-1.21,2.66,5,2.28Z"/>
          <path d="M316.1,225.32l-10.89-4.96,1.78-3.91c.62-1.37,1.43-2.3,2.43-2.78,1-.49,2.08-.46,3.24,.07,.76,.34,1.33,.82,1.71,1.42,.38,.6,.58,1.29,.57,2.08,0,.79-.21,1.64-.63,2.55l-1.58,3.47-.21-.53,3.94,1.79-.36,.79Zm-3.53-2.56l-.54,.19,1.58-3.47c.53-1.17,.68-2.18,.44-3.02-.24-.84-.83-1.48-1.76-1.9-.94-.43-1.81-.46-2.6-.08-.79,.37-1.45,1.15-1.98,2.32l-1.58,3.47-.23-.53,6.67,3.04Zm6.97-5l-5.24,1.03,.41-.9,5.24-1.03-.41,.9Z"/>
          <polygon points="312.3 201.92 312.71 200.46 322.52 197.96 315.47 190.71 315.88 189.26 328.36 192.78 327.86 194.56 319.31 192.16 325.17 198.21 324.9 199.17 316.76 201.26 325.28 203.67 324.78 205.45 312.3 201.92"/>
          <path d="M324.43,204.84l-11.51-3.26,.2-.71,10.74-2.73-.11,.38-7.72-7.94,.2-.69,11.52,3.24-.23,.82-10.25-2.88,.06-.23,7.29,7.52-.12,.41-10.15,2.6,.07-.25,10.25,2.9-.23,.82Z"/>
        </g>
      </g>
      <g>
        <g>
          <path d="M22.82,401.36c-3.27,0-6.34-.58-9.14-1.73-2.79-1.15-5.23-2.76-7.25-4.8-2.02-2.04-3.61-4.49-4.74-7.28-1.13-2.8-1.7-5.87-1.7-9.14s.57-6.38,1.7-9.14c1.12-2.75,2.74-5.16,4.8-7.18,2.06-2.02,4.52-3.62,7.29-4.74,2.77-1.13,5.82-1.7,9.04-1.7s6.38,.57,9.14,1.7c2.75,1.13,5.19,2.72,7.26,4.74,2.06,2.02,3.67,4.43,4.8,7.18,1.13,2.75,1.7,5.83,1.7,9.14s-.57,6.34-1.7,9.14c-1.12,2.79-2.73,5.24-4.77,7.28-2.04,2.04-4.48,3.66-7.26,4.8-2.77,1.15-5.86,1.73-9.16,1.73Zm0-40.19c-3.17,0-6.03,.75-8.53,2.23-2.49,1.48-4.47,3.55-5.88,6.15-1.4,2.59-2.11,5.57-2.11,8.85s.71,6.26,2.11,8.85c1.4,2.6,3.38,4.67,5.88,6.15,2.49,1.48,5.36,2.23,8.53,2.23s6.09-.75,8.56-2.23c2.47-1.48,4.43-3.54,5.84-6.15,1.4-2.59,2.11-5.57,2.11-8.86s-.7-6.26-2.07-8.85c-1.38-2.6-3.34-4.68-5.81-6.16-2.47-1.48-5.38-2.23-8.63-2.23Z"/>
          <polygon points="52.87 400.38 75.84 361.7 54.19 361.7 54.19 356.43 85.19 356.43 62.08 395.31 84.2 395.31 84.2 400.38 52.87 400.38"/>
          <path d="M128.15,400.38l-5.25-11.78h-18.1l-5.22,11.78h-6.63l20.92-45.21,20.92,45.21h-6.64Zm-21.92-16.46h15.26l-7.62-17.84-7.64,17.84Z"/>
          <path d="M169.34,400.38l-11.58-17.34h-6.15v17.34h-5.85v-43.94h13.2c3.16,0,5.94,.56,8.27,1.68,2.29,1.1,4.09,2.64,5.34,4.6,1.25,1.96,1.88,4.31,1.88,6.99s-.63,5.05-1.88,7.03c-1.25,1.98-3.05,3.53-5.34,4.63-.71,.34-1.48,.63-2.27,.87l-1.25,.37,12.61,17.78h-6.98Zm-17.73-21.82h7.02c1.87,0,3.56-.34,5-1,1.49-.68,2.67-1.69,3.51-2.99,.84-1.3,1.26-2.87,1.26-4.66s-.43-3.42-1.26-4.7c-.84-1.28-2.02-2.27-3.5-2.96-1.45-.66-3.13-1-5-1h-7.02v17.32Z"/>
          <polygon points="213.19 400.38 194.02 377.4 194.02 400.38 187.97 400.38 187.97 356.43 194.02 356.43 194.02 376.98 212.39 356.43 219.17 356.43 200.72 376.94 220.25 400.38 213.19 400.38"/>
          <rect x="254.66" y="356.43" width="5.92" height="43.94"/>
          <path d="M296.14,401.16c-3.23,0-6.27-.55-9.05-1.64-2.77-1.08-5.2-2.66-7.24-4.7-2.04-2.04-3.66-4.48-4.8-7.26-1.15-2.77-1.73-5.86-1.73-9.17s.58-6.39,1.73-9.17c1.15-2.77,2.76-5.21,4.8-7.26,2.04-2.04,4.47-3.62,7.24-4.7,2.78-1.09,5.82-1.64,9.05-1.64s5.94,.4,8.05,1.18c1.98,.74,3.87,1.81,5.61,3.17v6.41c-.69-.63-1.44-1.22-2.23-1.77-1.49-1.03-3.16-1.85-4.99-2.44-1.83-.59-3.91-.9-6.18-.9-2.94,0-5.7,.71-8.21,2.12-2.51,1.41-4.57,3.41-6.1,5.96-1.54,2.56-2.33,5.59-2.33,9.02s.78,6.41,2.33,8.99c1.54,2.57,3.59,4.59,6.11,6,2.51,1.4,5.27,2.12,8.21,2.12,2.27,0,4.35-.3,6.18-.9,1.82-.59,3.5-1.41,4.99-2.44,.8-.55,1.54-1.14,2.23-1.77v6.41c-1.74,1.37-3.63,2.43-5.61,3.17-2.11,.79-4.82,1.18-8.05,1.18Z"/>
          <polygon points="324.43 400.38 324.43 356.43 347.82 356.43 347.82 361.5 330.15 361.5 330.15 374.82 347.17 374.82 347.17 379.7 330.15 379.7 330.15 400.38 324.43 400.38"/>
        </g>
        <g>
          <g>
            <polygon points="146.85 433.13 146.85 412.18 149.64 412.18 149.64 430.71 158.31 430.71 158.31 433.13 146.85 433.13"/>
            <polygon points="165.62 433.13 165.62 412.18 168.41 412.18 168.41 430.71 177.08 430.71 177.08 433.13 165.62 433.13"/>
            <path d="M193.08,433.5c-1.54,0-2.99-.26-4.31-.78-1.32-.52-2.48-1.27-3.45-2.24-.97-.97-1.74-2.14-2.29-3.46-.55-1.32-.82-2.79-.82-4.37s.28-3.05,.82-4.37c.55-1.32,1.32-2.49,2.29-3.46,.97-.97,2.13-1.72,3.45-2.24,1.33-.52,2.78-.78,4.31-.78s2.83,.19,3.84,.56c.95,.35,1.84,.86,2.67,1.51v3.06c-.33-.3-.68-.58-1.06-.84-.71-.49-1.51-.88-2.38-1.16-.87-.28-1.87-.43-2.95-.43-1.4,0-2.72,.34-3.91,1.01-1.2,.67-2.18,1.63-2.91,2.84-.74,1.22-1.11,2.67-1.11,4.3s.37,3.06,1.11,4.28c.73,1.23,1.71,2.19,2.91,2.86,1.19,.67,2.51,1.01,3.91,1.01,1.08,0,2.07-.14,2.95-.43,.87-.28,1.67-.67,2.38-1.16,.38-.26,.73-.54,1.06-.84v3.06c-.83,.65-1.73,1.16-2.67,1.51-1.01,.37-2.3,.56-3.84,.56Z"/>
          </g>
          <rect x="23.32" y="421.66" width="109.68" height="1.99"/>
          <rect x="213.43" y="421.66" width="111.07" height="1.99"/>
        </g>
      </g>
    </g>
  </g>
</svg>